$MeshFormat
2.2 0 8
$EndMeshFormat
$PhysicalNames
6
1 1 "cc1"
1 2 "cc2"
1 3 "cc3"
1 4 "cc4"
1 5 "furo"
2 6 "surface"
$EndPhysicalNames
$Nodes
1632
1 0 0 0
2 2 0 0
3 2 1 0
4 0 1 0
5 1 0.4 0
6 1.1 0.5 0
7 1 0.6 0
8 0.9 0.5 0
9 0.09999999999979935 0 0
10 0.1999999999996294 0 0
11 0.2999999999994072 0 0
12 0.3999999999991158 0 0
13 0.4999999999988243 0 0
14 0.5999999999985328 0 0
15 0.6999999999982414 0 0
16 0.7999999999979499 0 0
17 0.8999999999976585 0 0
18 0.9999999999973885 0 0
19 1.09999999999763 0 0
20 1.199999999997894 0 0
21 1.299999999998157 0 0
22 1.39999999999842 0 0
23 1.499999999998683 0 0
24 1.599999999998947 0 0
25 1.69999999999921 0 0
26 1.799999999999474 0 0
27 1.899999999999737 0 0
28 0.04999999999990633 0 0
29 0.1499999999997057 0 0
30 0.249999999999553 0 0
31 0.3499999999992615 0 0
32 0.4499999999989701 0 0
33 0.5499999999986785 0 0
34 0.6499999999983871 0 0
35 0.7499999999980956 0 0
36 0.8499999999978042 0 0
37 0.9499999999975235 0 0
38 1.049999999997509 0 0
39 1.149999999997762 0 0
40 1.249999999998025 0 0
41 1.349999999998289 0 0
42 1.449999999998552 0 0
43 1.549999999998815 0 0
44 1.649999999999078 0 0
45 1.749999999999342 0 0
46 1.849999999999605 0 0
47 1.949999999999869 0 0
48 2 0.09999999999981468 0
49 2 0.1999999999995579 0
50 2 0.2999999999992664 0
51 2 0.399999999998975 0
52 2 0.4999999999986943 0
53 2 0.5999999999989468 0
54 2 0.69999999999921 0
55 2 0.7999999999994734 0
56 2 0.8999999999997368 0
57 2 0.04999999999989926 0
58 2 0.1499999999997036 0
59 2 0.2499999999994121 0
60 2 0.3499999999991207 0
61 2 0.4499999999988346 0
62 2 0.5499999999988205 0
63 2 0.6499999999990784 0
64 2 0.7499999999993416 0
65 2 0.8499999999996051 0
66 2 0.9499999999998684 0
67 1.899999999999584 1 0
68 1.799999999999167 1 0
69 1.699999999999306 1 0
70 1.6 1 0
71 1.500000000000693 1 0
72 1.400000000001387 1 0
73 1.30000000000208 1 0
74 1.200000000002774 1 0
75 1.100000000003467 1 0
76 1.000000000004117 1 0
77 0.9000000000037447 1 0
78 0.8000000000033287 1 0
79 0.7000000000029127 1 0
80 0.6000000000024965 1 0
81 0.5000000000020806 1 0
82 0.4000000000016644 1 0
83 0.3000000000012482 1 0
84 0.200000000000832 1 0
85 0.100000000000416 1 0
86 1.949999999999792 1 0
87 1.849999999999361 1 0
88 1.749999999999164 1 0
89 1.649999999999671 1 0
90 1.550000000000399 1 0
91 1.450000000001071 1 0
92 1.350000000001732 1 0
93 1.250000000002407 1 0
94 1.150000000003062 1 0
95 1.050000000003783 1 0
96 0.950000000003931 1 0
97 0.8500000000035366 1 0
98 0.7500000000031206 1 0
99 0.6500000000027046 1 0
100 0.5500000000022884 1 0
101 0.4500000000018725 1 0
102 0.3500000000014563 1 0
103 0.2500000000010401 1 0
104 0.1500000000006239 1 0
105 0.05000000000020788 1 0
106 0 0.8999999999995836 0
107 0 0.7999999999999998 0
108 0 0.7000000000006934 0
109 0 0.6000000000013869 0
110 0 0.5000000000020587 0
111 0 0.4000000000016644 0
112 0 0.3000000000012483 0
113 0 0.2000000000008322 0
114 0 0.100000000000416 0
115 0 0.9499999999998356 0
116 0 0.8499999999998515 0
117 0 0.7500000000003858 0
118 0 0.6500000000010593 0
119 0 0.5500000000016854 0
120 0 0.4500000000018616 0
121 0 0.3500000000014563 0
122 0 0.2500000000010403 0
123 0 0.1500000000006241 0
124 0 0.05000000000020799 0
125 1.038268343513433 0.4076120468635772 0
126 1.070710678293467 0.4292893220561578 0
127 1.092387953276253 0.4617316568241478 0
128 1.019509032246804 0.4019214719686661 0
129 1.055557023531693 0.4168530389232479 0
130 1.083146961305521 0.444442976810684 0
131 1.098078528053285 0.4804909678635492 0
132 1.092387953266799 0.5382683431986788 0
133 1.070710678028225 0.5707106782090845 0
134 1.03826834338943 0.5923879531877867 0
135 1.098078528046673 0.5195090321696894 0
136 1.083146961270638 0.5555570232415217 0
137 1.055557023355219 0.5831469611946681 0
138 1.019509032421587 0.5980785279965675 0
139 0.9617316566824117 0.5923879532175444 0
140 0.929289321663853 0.5707106779011625 0
141 0.9076120466652581 0.5382683430346488 0
142 0.980490967910025 0.5980785280625291 0
143 0.9444429764631618 0.583146961073314 0
144 0.9168530385997835 0.555557023047594 0
145 0.9019214719511247 0.5195090321586179 0
146 0.9076120468164018 0.4617316566004581 0
147 0.9292893220243749 0.4292893217383157 0
148 0.9617316569484698 0.4076120466722506 0
149 0.9019214719908415 0.4804909676417126 0
150 0.9168530388793193 0.4444429765340509 0
151 0.944442976903813 0.4168530386322523 0
152 0.9804909678869899 0.4019214719420529 0
153 0.8671243771328269 0.5190727204930018 0
154 1.132875622915364 0.4809272793623905 0
155 0.08361971500790054 0.4496447749550599 0
156 1.916380285110869 0.5503552250453217 0
157 1.11339496455217 0.5705756716243746 0
158 0.887396855153519 0.4325316847240191 0
159 1.45287335154967 0.9152851450331374 0
160 0.5471266488804898 0.08471485494535182 0
161 0.5478665045785795 0.9214469657953632 0
162 1.452133495506301 0.0785530339860141 0
163 1.077544002389577 0.3902435564014853 0
164 0.922501707417915 0.60974422412695 0
165 0.9781539756189305 0.3705522798351258 0
166 1.02095528728409 0.6306171706275043 0
167 1.261090190636776 0.9096254759261874 0
168 0.7389168278510276 0.09037864197653461 0
169 1.24886252520733 0.08180127275663912 0
170 0.7519709012152852 0.9116437471979039 0
171 0.3514186371503494 0.9143576666312083 0
172 1.648524117457614 0.08567300889039438 0
173 0.3438234355325568 0.0912643303431053 0
174 1.656176564534362 0.9087356696535687 0
175 0.07902122567874115 0.6439168383824126 0
176 1.920539224135343 0.3572998755458136 0
177 1.052614299400868 0.08190912588903929 0
178 0.9440006449945151 0.9267207838541764 0
179 0.08552310783865016 0.2511857725371289 0
180 1.914476892159404 0.7488142274650352 0
181 0.07493580219567693 0.8497058330969354 0
182 1.84163164995679 0.08519325332980016 0
183 0.870664666090717 0.4742736024276346 0
184 0.8320298302975352 0.4995075857751435 0
185 0.8295226844150336 0.543985267157823 0
186 0.7892911267954382 0.5190065764906374 0
187 0.7884618159168182 0.5707791001465234 0
188 0.7430254444022971 0.5417264491896523 0
189 0.7471827495859533 0.4876536268526249 0
190 0.6958623772010065 0.5105410728140907 0
191 0.7015248034337083 0.4522590056807353 0
192 0.6454163551729769 0.4764239841204817 0
193 0.6410069298349211 0.5389020874368857 0
194 0.5859827742468353 0.5028164985297898 0
195 0.5855086764129159 0.5730583802469972 0
196 0.5238636126688129 0.5322089220896319 0
197 0.5292356188816643 0.4606912391096434 0
198 0.4619920551793745 0.4912755804209676 0
199 0.4563504972149049 0.5670209200440339 0
200 0.4688989793903829 0.4151856493466828 0
201 0.5366588392247553 0.3892483872746535 0
202 0.7406428052244045 0.5956779679431918 0
203 0.7887160069867698 0.6263590610169105 0
204 0.7368513279155882 0.655550185058702 0
205 0.3905486063293158 0.5241308004832059 0
206 0.3859237340609001 0.6037771739328277 0
207 0.7892217736128564 0.6884494744555627 0
208 0.4633331230062701 0.6375152736210161 0
209 0.4779578550134674 0.3376234713098621 0
210 0.4038432055119001 0.368769503482206 0
211 0.7626393231670395 0.4301511189871609 0
212 0.7088897727792927 0.392071089090425 0
213 0.768760772749906 0.3657888811966907 0
214 0.7156688250173869 0.3286217398000941 0
215 0.7785265444927594 0.3014673392267777 0
216 0.5537464621733675 0.3121870161823355 0
217 0.7333740801142432 0.7188338539750601 0
218 0.316968867417913 0.5581803018882163 0
219 0.3090000306194521 0.6559158588756899 0
220 0.721809297845313 0.2612302761601463 0
221 0.7837025241936482 0.7537532761315472 0
222 0.844587677846915 0.7213721305676475 0
223 0.4864739708160242 0.2576448129529567 0
224 0.669474091277378 0.6753491795954406 0
225 0.6690000451657021 0.7516699240916181 0
226 0.7861454499435742 0.2349299578117356 0
227 0.8419370990726218 0.2759647465276472 0
228 0.850798343718856 0.2090344570165069 0
229 0.9102428572223502 0.2576245377840818 0
230 0.9195600022777946 0.1855250235095816 0
231 0.9700339276582161 0.228221903201134 0
232 0.606744049752981 0.7147421322098058 0
233 0.8413488183740507 0.7903858560444326 0
234 0.9038307749225705 0.7489814852859162 0
235 1.129335333993905 0.5257263974430394 0
236 1.167970169849338 0.5004924140478356 0
237 1.170476239856103 0.4560141828979715 0
238 1.2107086941251 0.4809933316294013 0
239 1.211536899222217 0.4292202429038186 0
240 1.256974311835663 0.458273425734133 0
241 1.252817180218144 0.512346336835579 0
242 1.304137570794732 0.4894589000141135 0
243 1.298475176572223 0.5477409835853481 0
244 1.354583633244665 0.5235760092811403 0
245 1.358993059891995 0.4610979065586022 0
246 1.414017222567489 0.4971834989998494 0
247 1.414491321682952 0.4269416178647552 0
248 1.476136388021896 0.467791077258408 0
249 1.470764381265947 0.5393087600302482 0
250 1.538007945624583 0.5087244188838697 0
251 1.54364950352408 0.4329790791530908 0
252 1.531101021466772 0.5848143500572643 0
253 1.463341161528327 0.6107516122484096 0
254 1.259357128657747 0.4043219976714276 0
255 1.21129622073416 0.3736404619200594 0
256 1.263150699105436 0.3444497292818649 0
257 1.609451394553346 0.4758691986876249 0
258 1.614093763912364 0.3961955569907044 0
259 1.210805869377209 0.3115501620396762 0
260 1.536690069758601 0.3624406916931263 0
261 1.522042146020117 0.6623765282539565 0
262 1.596156795572123 0.6312304959354531 0
263 1.23736066413948 0.5698488742363791 0
264 1.291110222195042 0.6079289079042459 0
265 1.234244977792908 0.6316494995394728 0
266 1.284832133042806 0.6709513231238012 0
267 1.224692165288419 0.696979654785233 0
268 1.446253538755653 0.6878129835192763 0
269 1.267246521426729 0.2801147374851108 0
270 1.683054265702916 0.4417848412874834 0
271 1.69093772476307 0.3438545205410996 0
272 1.27881064733068 0.7384397333505979 0
273 1.209600006641569 0.2455036050326771 0
274 1.154269725134525 0.2784003876367414 0
275 1.513526030319827 0.7423551867222037 0
276 1.330614855841697 0.3245006064318534 0
277 1.330302228473164 0.2466950274694358 0
278 1.214371927768059 0.7648272175030245 0
279 1.166711462579825 0.7223797835564347 0
280 1.150711274961976 0.7907023683534649 0
281 1.095198143914159 0.7466863568985476 0
282 1.393204183484969 0.2851060590557424 0
283 1.086340273825201 0.8144143964640326 0
284 1.150278756637326 0.2121768713267511 0
285 0.9742736024528037 0.6293353340825483 0
286 0.9929430306577333 0.6676747940121737 0
287 1.025726397644762 0.3706646661433827 0
288 1.058997687170642 0.3428849008217673 0
289 1.062648636623145 0.6230205561640554 0
290 0.9361570718676727 0.3765440808090005 0
291 1.003632744104577 0.3339229005022649 0
292 1.040889868020922 0.2946816175230125 0
293 1.677361709555009 0.522559838393133 0
294 0.3226421468483054 0.477434351434072 0
295 0.2457442098154384 0.5118486931261124 0
296 0.2526603180950719 0.4252852291623163 0
297 1.754255791259974 0.4881513058504522 0
298 1.747339683097126 0.5747147699140748 0
299 1.105139186130277 0.3561417529090394 0
300 0.9387262761150319 0.656392590691123 0
301 0.8944920504199034 0.6436403923289461 0
302 0.1561182842849721 0.09028931467355684 0
303 1.843881715712216 0.909710685329931 0
304 1.029583673967689 0.7717186389428196 0
305 1.154602736672268 0.5640385504099954 0
306 1.138831753381765 0.6204383723563608 0
307 0.8453972633097881 0.4359614495038535 0
308 0.8598661515359703 0.3923096242792068 0
309 0.8965785182631649 0.5756904679974633 0
310 1.103430303957251 0.424313654656335 0
311 0.5646092719722653 0.2303093011173125 0
312 1.435390729088214 0.7696906987004224 0
313 0.8645502643311668 0.1485416796530703 0
314 1.138798068660071 0.8568242149233687 0
315 0.5970230829813505 0.7905880614538306 0
316 0.5338357261158388 0.7461641590745047 0
317 1.402852001542044 0.2091141285342265 0
318 1.466159910104857 0.2537860144965903 0
319 1.341520317812264 0.6445061767148756 0
320 0.6585631748581121 0.3554226664625809 0
321 0.9206827038378893 0.1079963276845692 0
322 1.068805685568389 0.8909235238603406 0
323 0.8933715428222981 0.3145669015169963 0
324 1.0453774230964 0.6670948028156289 0
325 1.094451772003958 0.6509124203887179 0
326 0.676931680294938 0.8345578449920991 0
327 1.338540539134716 0.1734152463001726 0
328 1.272317082963868 0.8139362288775583 0
329 0.7278736934449346 0.1859691261668387 0
330 0.9565729491950996 0.7059191449857105 0
331 1.503207546608492 0.8316151532641308 0
332 1.585454864451648 0.7803818990496838 0
333 0.4967924540999928 0.1683848465857374 0
334 0.4145451363841646 0.2196181007055312 0
335 0.9074922690603797 0.8141583667487913 0
336 0.8345424072457996 0.861051907355227 0
337 1.152073140432495 0.08571752618661527 0
338 0.9434431746756318 0.3349981324959452 0
339 1.349317373443414 0.77729893352 0
340 1.329630964798742 0.8503063178891263 0
341 0.6507984446082651 0.2226404042073911 0
342 0.6704317580568545 0.1496634442660969 0
343 1.35978742669147 0.3923863736630395 0
344 0.6402125737185437 0.6076136257254519 0
345 1.206582454445134 0.1625645726004577 0
346 1.462045758861667 0.325846543179131 0
347 0.5379523050712218 0.6741154806044534 0
348 0.4497965754562767 0.08148453212107452 0
349 1.550203424689989 0.9185154678465142 0
350 1.094483004805872 0.2510720725094615 0
351 1.087823693092429 0.1895461603625933 0
352 0.449677078013658 0.9169119002558436 0
353 0.4007893187018585 0.8328044452545335 0
354 0.3050272108657634 0.830563413694681 0
355 0.3511718786711435 0.7498973444400945 0
356 0.2591585374917781 0.7446843351681622 0
357 0.2147211203498265 0.6614374858822339 0
358 0.1748742079570295 0.7448121276534112 0
359 0.5105091667390786 0.8315867202996658 0
360 1.550313381101097 0.08309321220360683 0
361 1.59921863224928 0.167126079152541 0
362 1.694707754282815 0.1693300913124722 0
363 1.64873700881004 0.249952865363355 0
364 1.740486029949803 0.2550404342638555 0
365 1.785011472881859 0.3380189422600564 0
366 1.829405523468036 0.2536640737845482 0
367 1.48948766475441 0.168345421605225 0
368 1.554859283570036 0.2425459598762266 0
369 0.4451458769385067 0.7573583923136029 0
370 1.745878867980508 0.08542691159834344 0
371 0.2539813022286548 0.9143086397804669 0
372 0.8359943111887336 0.3427002947928485 0
373 1.181925805008066 0.6584909114694933 0
374 0.08095764955531926 0.546972038964889 0
375 1.918939864490624 0.4531860206437259 0
376 0.08406362227861769 0.3500824513706752 0
377 0.1685394520271728 0.2989352444924175 0
378 0.1673264550682744 0.2005018911038652 0
379 0.2664598264736561 0.2539918071545701 0
380 0.2552580076305149 0.1560321755316042 0
381 1.915936377822347 0.6499175486298207 0
382 1.831460548363753 0.7010647554392638 0
383 1.832673544988564 0.7994981088907048 0
384 1.733540174299557 0.7460081926258388 0
385 1.744741992347112 0.8439678244933925 0
386 0.6458963909002843 0.9215471322400117 0
387 0.754807125376427 0.8299394316795757 0
388 1.344233259900922 0.089070007952186 0
389 0.895815790557896 0.6886758273222209 0
390 0.2156189783525012 0.8259680992725467 0
391 1.790066633933084 0.1712559902752794 0
392 1.901389906817948 0.1630486491980812 0
393 0.1639794733347828 0.3996672984070621 0
394 1.83602052715899 0.6003327015918574 0
395 1.10287434328183 0.3112383158016019 0
396 0.9730937381109467 0.2860530056359356 0
397 1.189773353975053 0.6011523317427367 0
398 0.8118348008348698 0.4006129435438731 0
399 0.5916736181491812 0.4373187973310324 0
400 1.408326379777934 0.5626812008447956 0
401 0.8466503904552116 0.6535992398374263 0
402 0.8315479756255707 0.5932179227560347 0
403 1.152953643135815 0.3463301524623917 0
404 1.168390348830953 0.4067768750427194 0
405 0.1513999855267415 0.9035419488156784 0
406 1.603509533163601 0.5542173152535348 0
407 0.3964911103658706 0.4457817158105173 0
408 0.7958680532636807 0.4731705996667049 0
409 1.204131915679643 0.5268293841796905 0
410 0.08036215465809007 0.152530343178768 0
411 1.919637845350498 0.8474696568212878 0
412 1.349045571024343 0.5846817028445696 0
413 0.6509683381042568 0.4153064339448532 0
414 0.9667484249506768 0.7656870317775507 0
415 0.9829964232016581 0.8449350106602755 0
416 0.1620784271377158 0.4932797835458506 0
417 0.1669775913940782 0.5889788210267974 0
418 1.838836109530878 0.5048365765148342 0
419 1.832992376931839 0.4107722798580635 0
420 1.587099429689999 0.7060924992603896 0
421 1.663998467913874 0.6803771509448456 0
422 0.412900571413765 0.2939075002950104 0
423 0.3360015333077703 0.3196228484359446 0
424 1.029383225433954 0.2362414796453853 0
425 1.007759335577658 0.1519350547262831 0
426 1.023595503536244 0.7184313367557716 0
427 0.3402118128662986 0.1863200361577998 0
428 0.2517072776239262 0.3412532795164319 0
429 1.659788187628664 0.8136799636774269 0
430 1.74829272392055 0.658746720055528 0
431 1.475910075576122 0.3956191649646316 0
432 0.5240917322615962 0.6043738605705442 0
433 1.306315817616493 0.4325319015821266 0
434 0.6936841509710514 0.5674680816911795 0
435 1.269042333883402 0.2135268012561623 0
436 0.08851880227891828 0.7462398449525925 0
437 1.672776485537047 0.6036410484160948 0
438 0.3272242652921407 0.3963578213069146 0
439 1.918447240861282 0.2637600330838586 0
440 0.7986658138521312 0.1567130066399288 0
441 1.20227445083445 0.8440884759974187 0
442 0.6613308744135744 0.2934889759738576 0
443 1.338826294337463 0.706405220778068 0
444 1.592741419592889 0.3152679637941527 0
445 0.4072434416032286 0.6846287547009938 0
446 1.749250326307932 0.404516377959431 0
447 0.2506823639193416 0.59527223215981 0
448 0.2510399454894161 0.06751716410965328 0
449 1.748960054518433 0.9324828358953785 0
450 0.8924125128399375 0.3623235819749221 0
451 0.6440309144000117 0.08347393028030026 0
452 1.355980709404446 0.9165217163826958 0
453 0.8538272955852715 0.9327205016762268 0
454 0.8333000403623296 0.08036281919878938 0
455 1.172575857312659 0.925568425000982 0
456 1.305424901164722 0.3786690508581894 0
457 0.6952462961750847 0.6209056906749646 0
458 1.40025769654393 0.6216569387370127 0
459 0.5997423042322709 0.3783430609838639 0
460 1.138830929898532 0.1538815823163818 0
461 1.099942433599797 0.6093176165979184 0
462 0.5986092593074945 0.8616342354547044 0
463 1.401390740768137 0.1383657640428642 0
464 1.404400112482163 0.8434529941315854 0
465 0.5956315820029798 0.1565311302336983 0
466 1.392025865788254 0.7231404777130923 0
467 0.608028732128043 0.2768262290429749 0
468 0.6000426517023005 0.651170942762924 0
469 1.399958955950143 0.3488140032163831 0
470 1.079506422913095 0.6926472037934087 0
471 0.7254113352449227 0.777834944769888 0
472 1.2778103071369 0.1461553397178345 0
473 0.07320508075687601 0.9267949192431241 0
474 1.926794919242843 0.0732050807570369 0
475 0.07320508075664384 0.07320508075680904 0
476 1.926794919242805 0.9267949192428462 0
477 1.592803585780994 0.8541761538090126 0
478 0.4071964145420802 0.1458238460814428 0
479 1.519251110767786 0.2990176499485766 0
480 0.4807546407687521 0.7009141471942909 0
481 1.129762811028117 0.6814073444670321 0
482 0.9111422617283239 0.4001017233662857 0
483 0.9815303153990714 0.06726827243561495 0
484 1.015316445000962 0.933422019438968 0
485 0.875019462816753 0.6069750080740856 0
486 1.124996583196161 0.3930660705529657 0
487 0.9298580385300613 0.2979575871091041 0
488 0.8644804273415436 0.5602927317058561 0
489 1.135516351312734 0.4397106227012418 0
490 0.6143898232501218 0.3238969777305098 0
491 1.385652357124374 0.6760729859368163 0
492 0.9045718080175247 0.8759173140589394 0
493 1.191674186855831 0.5624477824447194 0
494 0.8092594724291129 0.4390100869417296 0
495 0.1413521780879049 0.8123285934892166 0
496 1.645976224796748 0.7453079411116369 0
497 0.3540237760891309 0.2546920585497712 0
498 1.852803670185243 0.3229392365700592 0
499 0.1477214826829733 0.6771886738710466 0
500 1.087820279680396 0.1325978898961825 0
501 1.041931514140734 0.8304978924818671 0
502 1.163446108357769 0.533115419372053 0
503 0.8366024979667704 0.4669604787614315 0
504 1.478040449079081 0.8734501491486342 0
505 1.428636732015916 0.8793690695823614 0
506 1.453803829545327 0.837534073697858 0
507 0.5219595514902413 0.1265498507655446 0
508 0.5713791154417348 0.1206229925895251 0
509 0.5462120180514863 0.1624579884097179 0
510 1.950694953408974 0.1815243245988196 0
511 1.950694953408974 0.1315243245989479 0
512 0.9103413519177739 0.0539981638422846 0
513 0.8769913721001095 0.09417957344167929 0
514 0.866650020179994 0.04018140959939469 0
515 1.295360577717759 0.8799658969076568 0
516 1.342805837101594 0.8834140171359111 0
517 1.308535450020611 0.9130735961544416 0
518 0.7046742929539411 0.1200210431213157 0
519 0.6572313362284331 0.1165686872731986 0
520 0.6914738711255197 0.08692628612841743 0
521 1.084402842785928 0.9454617619301703 0
522 1.120690771440524 0.9082459744306612 0
523 1.136287928658063 0.9627842125004911 0
524 1.116641762692862 0.6356753963725393 0
525 1.097197102801878 0.6301150184933182 0
526 1.119387093490781 0.6148779944771396 0
527 0.7144512907551116 0.8731007960950015 0
528 0.6989336460577847 0.9165954397189577 0
529 0.6614140355976111 0.8780524886160554 0
530 0.8125256712838494 0.7720695660879899 0
531 0.7980779718752389 0.8101626438620042 0
532 0.7692548247850376 0.7918463539055615 0
533 0.8379456128099252 0.8257188816998298 0
534 0.7946747663111133 0.8454956695174014 0
535 1.669837366786555 0.2969036929522273 0
536 1.694611519379922 0.2524966498136052 0
537 1.715711877356436 0.2994474774024775 0
538 0.8023775419693198 0.3542445879947696 0
539 0.8239145560118017 0.3716566191683608 0
540 0.7902977867923879 0.3832009123702819 0
541 0.3300859546452978 0.7029066016578922 0
542 0.3051652080814608 0.7472908398041284 0
543 0.2840792840556151 0.7003000970219261 0
544 0.7932566542305424 0.8863478272765655 0
545 0.7533890132958561 0.8707915894387398 0
546 1.134297282204941 0.6509228584116964 0
547 1.112107291516037 0.6661598824278749 0
548 1.280545095319428 0.9548127379630937 0
549 1.327990354703263 0.9582608581913479 0
550 0.7194584139246345 0.04518932098826731 0
551 0.6720154571991266 0.04173696514015013 0
552 1.914092413030395 0.1181268649775591 0
553 1.963397459621421 0.0866025403784258 0
554 0.5654294045485947 0.7683761102641677 0
555 0.5537661248602146 0.8110873908767482 0
556 0.5221724464274587 0.7888754396870853 0
557 1.434505955823451 0.2314500715154084 0
558 1.446169833148227 0.1887297750697258 0
559 1.477823787429633 0.2110657180509077 0
560 1.200467832819912 0.08375939947162719 0
561 1.227722489826232 0.1221829226785484 0
562 1.179327797438814 0.1241410493935365 0
563 0.1617223696766232 0.145395602888711 0
564 0.2056881459577435 0.1231607451025805 0
565 0.2112922313493946 0.1782670333177347 0
566 1.83827763035039 0.8546043971103179 0
567 1.794311854029664 0.8768392549116617 0
568 1.788707768667838 0.8217329666920486 0
569 0.7158694028356825 0.8322486383358374 0
570 1.006991803065935 0.290367311579474 0
571 1.00123848177245 0.2611472426406605 0
572 1.035136546727438 0.2654615485841989 0
573 1.059396823725202 0.7325588468271595 0
574 1.05155096322467 0.7055392702745902 0
575 1.087352283413627 0.7196667803459782 0
576 0.5978161711444225 0.8261111484542676 0
577 0.5545592130232866 0.8466104778771851 0
578 1.402121371155091 0.1737399462885454 0
579 1.445439202761273 0.1533555928240447 0
580 1.172706692171833 0.1582230774584197 0
581 1.145452035165513 0.1197995542514985 0
582 1.047791514335043 0.1707406075444382 0
583 1.047789807629027 0.1422664723112328 0
584 1.087821986386412 0.161072025129388 0
585 1.296547892554126 0.08543564035441256 0
586 1.311021783518911 0.1176126738350103 0
587 1.263336416172115 0.1139783062372368 0
588 0.2083198957149273 0.4124762637846892 0
589 0.2073693726163938 0.4592825063540834 0
590 0.1630289502362493 0.4464735409764563 0
591 1.791680105128058 0.5875237357529661 0
592 1.793087896314002 0.5397756732144545 0
593 1.837428318344934 0.5525846390533458 0
594 0.7736436586213327 0.3336281102117342 0
595 0.8072604278407465 0.3220838170098131 0
596 0.2995407215815358 0.1236482529373547 0
597 0.3420176241994277 0.1387921832504526 0
598 0.2977349102484067 0.171176105844702 0
599 1.700459278440737 0.8763517470734805 0
600 1.657982376081513 0.8612078166654977 0
601 1.702265089987888 0.8288238940854097 0
602 1.445200698629537 0.4112803914146934 0
603 1.407225138816548 0.3878778105405691 0
604 1.437934515763133 0.3722165840905073 0
605 0.5548002043372561 0.5887161204087707 0
606 0.5927756640576083 0.6121146615049606 0
607 0.5620671919819484 0.6277724016667341 0
608 0.9836083165552685 0.648505064047361 0
609 0.9658346533863826 0.6620336923516483 0
610 0.9564999392839177 0.6428639623868356 0
611 0.8926164840845281 0.1282690036688198 0
612 0.8489251523467483 0.1144522494259299 0
613 1.10380187711423 0.8738738693918546 0
614 1.155686962986365 0.8911963199621753 0
615 1.341386899517819 0.1312426271261793 0
616 1.308175423135808 0.1597852930090036 0
617 0.2492022639552552 0.4685669611442143 0
618 0.2039113184765771 0.5025642383359815 0
619 1.75079773717855 0.5314330378822635 0
620 1.796545950395426 0.4964939411826432 0
621 1.102343719916681 0.08381332603782728 0
622 1.119946710056445 0.1091577080413989 0
623 1.070217289540632 0.1072535078926109 0
624 1.042362042407702 0.356774783482575 0
625 1.014679570874669 0.3522937833228238 0
626 1.031315215637609 0.3384039006620161 0
627 0.8441848514155356 0.8968862045157269 0
628 0.8028990984002784 0.9221821244370654 0
629 1.762748751415831 0.2965296882619559 0
630 1.737974598822464 0.340936731400578 0
631 0.2369398289208023 0.7030609105251981 0
632 0.2618605754846393 0.6586766723789619 0
633 0.9201213530578419 0.1467606755970754 0
634 0.9642210197077737 0.1299656912054262 0
635 0.9636596689277264 0.1687300391179324 0
636 1.469299137848353 0.8006529259822766 0
637 1.419895420785188 0.8065718464160039 0
638 0.5307008630361291 0.1993470738515249 0
639 0.5801204269876226 0.1934202156755054 0
640 1.266703636800322 0.8617808524018729 0
641 1.300974023881305 0.8321212733833423 0
642 0.7333952606479811 0.1381738840716867 0
643 0.6991527257508945 0.1678162852164678 0
644 0.9511065096184803 0.08763230006009208 0
645 0.9946448254883649 0.109601663580949 0
646 1.104634616970606 0.6870272741302204 0
647 1.112480477471138 0.7140468506827898 0
648 0.8951539204888996 0.6661581098255835 0
649 0.8712330905065537 0.6711375335798235 0
650 0.8705712204375575 0.6486198160831862 0
651 1.030186817489263 0.1169220903076612 0
652 1.01707230739997 0.07458869916232712 0
653 0.7687913208515794 0.1235458243082317 0
654 0.7632697536485329 0.1713410664033837 0
655 1.231682320735613 0.876856975961803 0
656 1.237295766899159 0.8290123524374885 0
657 1.160378779194916 0.6394646419129271 0
658 1.155844308018092 0.6699491279682628 0
659 1.104006764706054 0.3336900343553206 0
660 1.127913993208823 0.3287842341319968 0
661 1.129046414633046 0.3512359526857155 0
662 1.025901054385023 0.8679292672603081 0
663 1.012463968671196 0.8377164515710713 0
664 1.055368599854561 0.8607107081711038 0
665 0.2035791148871941 0.07890323939160507 0
666 0.2531489765599655 0.1117746698206287 0
667 1.796420885115324 0.9210967606126548 0
668 1.746851023432773 0.8882253301943854 0
669 0.9416682976666484 0.2718387717100087 0
670 0.951475888320504 0.2920052963725199 0
671 0.9200504478762057 0.277791062446593 0
672 0.9747579899264165 0.6867969694989421 0
673 0.9476496126550658 0.6811558678384168 0
674 1.641839572177979 0.3295612421676262 0
675 1.620739214201465 0.2826104145787539 0
676 1.062390908940924 0.7592024979206835 0
677 1.026589588751966 0.7450749878492956 0
678 0.3581217361113403 0.6702723067883418 0
679 0.379207660137186 0.7172630495705441 0
680 1.076307149699249 0.04095456294451964 0
681 1.126036570215062 0.04285876309330763 0
682 1.274431262602743 0.04090063637831956 0
683 1.322116629949539 0.044535003976093 0
684 0.725985450609099 0.9558218735989519 0
685 0.6729481954515986 0.9607735661200059 0
686 0.8702017342024055 0.7050239789449342 0
687 0.8456190341510633 0.6874856852025368 0
688 0.847930231362352 0.3675049595360276 0
689 0.8358504761854201 0.39646128391154 0
690 1.624490075157678 0.8814559117312906 0
691 1.626295886704829 0.8339280587432197 0
692 0.3755099250373185 0.1185440882122741 0
693 0.3737041137041894 0.1660719411196213 0
694 1.02226130606275 0.3143022590126387 0
695 1.049943777595782 0.3187832591723899 0
696 0.9407651576983649 0.03363413621780748 0
697 1.066679657325685 0.5968656171865699 0
698 1.050458490006287 0.607704254675921 0
699 1.130954803246992 0.7345330702274911 0
700 1.148237136803971 0.7018935640117334 0
701 1.128572034208177 0.2948193517191717 0
702 1.15361168413517 0.3123652700495665 0
703 1.057658222502215 0.966711009719484 0
704 1.042061065284675 0.9121727716496543 0
705 1.522173474162223 0.2054456907407258 0
706 1.510509596837447 0.2481659871864084 0
707 1.468977917218894 0.3607328540718813 0
708 1.431002357405905 0.3373302731977571 0
709 0.531022018666409 0.6392446705874988 0
710 0.5689974783867612 0.6626432116836887 0
711 0.4778275218387926 0.7944725563066344 0
712 0.4894908015271727 0.7517612756940538 0
713 0.5955787816402507 0.08409439261282603 0
714 0.6198312482014958 0.1200025302569993 0
715 1.404427030477058 0.9159034307079166 0
716 1.380190410943304 0.8799873552571406 0
717 0.9991564341013103 0.8891785150496218 0
718 0.9447969649680052 0.2068734633553578 0
719 0.9888966316179371 0.1900784789637086 0
720 0.9883632411077616 0.3099879530691002 0
721 1.52670548564924 0.8750653105553226 0
722 1.501538388119829 0.9169003064398258 0
723 0.4732945147781348 0.124934689353406 0
724 0.4984616121683833 0.08309969353321317 0
725 0.930201862058835 0.7274503151358134 0
726 0.8998232827402333 0.7188286563040686 0
727 0.9261943698764978 0.6972974861539657 0
728 0.9715638328845814 0.2571374544185348 0
729 0.9997085765460849 0.2322316914232597 0
730 1.564715744675745 0.3388543277436395 0
731 1.527970590263193 0.3307291708208514 0
732 1.555996265180337 0.3071428068713646 0
733 0.4352882823047493 0.6610720141610049 0
734 0.4720438818875111 0.6692147104076536 0
735 0.4439990411859903 0.6927714509476424 0
736 0.8688945216117719 0.4966731614603181 0
737 0.849577103715181 0.5092901531340727 0
738 0.8513472481941261 0.486890594101389 0
739 1.131105478454635 0.503326838402715 0
740 1.150422896382351 0.4907098467051131 0
741 1.148652751921622 0.5131094057454375 0
742 1.793624084095907 0.4494617928542579 0
743 1.835914243231359 0.4578044281864488 0
744 0.9401383924402831 0.2429232204926079 0
745 0.2063609006047583 0.5504137570764549 0
746 0.164528009265897 0.5411293022863241 0
747 0.4556492427204686 0.8321955827770997 0
748 0.4229675978201826 0.7950814187840682 0
749 0.876089978147486 0.2667946421558645 0
750 0.9018072000223242 0.286095719650539 0
751 0.86765432094746 0.2952658240223217 0
752 1.544353148501845 0.167735750378883 0
753 1.577038957909658 0.2048360195143838 0
754 1.085326555814011 0.5900141474035014 0
755 1.081295535111471 0.6161690863809869 0
756 1.573800351581462 0.2789069618351896 0
757 1.537055197168911 0.2707818049124016 0
758 0.4261946592708676 0.7209935735072983 0
759 0.4629502588536294 0.729136269753947 0
760 0.8835621885664134 0.5095363602465008 0
761 0.8853323330453585 0.4871368012138173 0
762 1.116437811457682 0.4904636396811953 0
763 1.114667666996953 0.5128631987215198 0
764 0.2974316905109864 0.07939074722637929 0
765 1.702568309526397 0.9206092527744736 0
766 0.1238443048631822 0.1765161171413166 0
767 0.1182402194715311 0.1214098289261624 0
768 1.876155695169531 0.8234838828559963 0
769 1.881759780531357 0.8785901710756094 0
770 1.058603459263191 0.2128938200039893 0
771 1.018571280505806 0.1940882671858342 0
772 1.751753058783953 0.4463338419049416 0
773 1.791121351619886 0.4076443289087472 0
774 0.9202157918763494 0.4146955225523007 0
775 0.9364369593383969 0.4038568850192681 0
776 0.24821328686739 0.5535604626429611 0
777 0.2088299776567099 0.5921255265933036 0
778 0.9616606870728882 0.7358030883816307 0
779 0.9900842263656717 0.7121752408707411 0
780 0.9951719642434603 0.7420591842666612 0
781 0.9398001232716522 0.3557711066524729 0
782 0.9142847923538051 0.3694338313919613 0
783 0.9179278437577847 0.3486608572354337 0
784 1.067686436413398 0.272876845016237 0
785 1.098678674043851 0.2811551941555317 0
786 1.071882105651376 0.3029599666623072 0
787 0.8102318217826906 0.2887160428772124 0
788 0.8389657051306777 0.3093325206602479 0
789 0.8975044509849603 0.4471316706622386 0
790 0.8891383564535594 0.4680026295140463 0
791 0.8790307606221179 0.4534026435758268 0
792 1.102891458909484 0.5544220074115267 0
793 1.110861643630352 0.5319973703208591 0
794 1.121365149273037 0.5481510345337071 0
795 0.1662594626809778 0.3493012714497398 0
796 0.2101233648255495 0.3200942620044247 0
797 0.2078433754793545 0.370460288961747 0
798 1.833740537761372 0.6506987285155605 0
799 1.789876636142151 0.6799057377473959 0
800 1.79215662553977 0.6295397108236926 0
801 0.4987717912961188 0.9191794330256033 0
802 0.4800931223763683 0.8742493102777547 0
803 0.5291878356588291 0.8765168430475145 0
804 1.501223438303699 0.08082312309481046 0
805 1.519900522927753 0.1257193169044159 0
806 1.470810580130355 0.1234492277956196 0
807 0.8089922501659259 0.5573821836521733 0
808 0.8305353300203022 0.5686015949569289 0
809 0.8100048957711945 0.5819985114512791 0
810 1.19100656953916 0.4426172129008951 0
811 1.169433294343528 0.4313955289703454 0
812 1.189963624026585 0.417998558973269 0
813 0.5239332522903301 0.9607234828976816 0
814 0.4748385390078693 0.9584559501279217 0
815 1.476066747752492 0.03927651699300705 0
816 1.52515669054989 0.04154660610180341 0
817 0.925895514540884 0.5902274510140562 0
818 0.90954011284054 0.5927173460622066 0
819 0.9129339199635089 0.5732005729493128 0
820 1.074127340341522 0.4097664392288216 0
821 1.090487153173414 0.4072786055289102 0
822 1.087070491125359 0.4268014883562464 0
823 0.8580309647002526 0.4551175259657441 0
824 0.8663970592316536 0.4342465671139363 0
825 1.141969035333087 0.5448824739265175 0
826 1.133998850612219 0.567307111017185 0
827 1.224431262602612 0.04090063637831956 0
828 1.176036570215194 0.04285876309330763 0
829 0.2521837978594991 0.3832692543393741 0
830 1.747816203508838 0.6167307449848014 0
831 0.3012306798907132 0.2868073277952573 0
832 0.3102418012813935 0.2543419328521707 0
833 0.3450126546984506 0.2871574534928579 0
834 1.698769321106715 0.7131926717853423 0
835 1.689758199548153 0.7456580668687378 0
836 1.654987346355311 0.7128425460282413 0
837 0.4252331983577582 0.8748581727551885 0
838 1.574766006675188 0.1251096456780739 0
839 1.195701813934122 0.7096797191708339 0
840 1.174318633793946 0.6904353475129641 0
841 1.203308985148243 0.6777352831273632 0
842 0.9371203470055283 0.7899226992631709 0
843 0.9748724240761675 0.8053110212189132 0
844 0.9452443461310189 0.8295466887045334 0
845 0.9421166820501634 0.6010660886722472 0
846 0.9680026295676076 0.6108616436500464 0
847 0.9483876549353594 0.6195397791047491 0
848 0.7861084341066786 0.08537073058766199 0
849 0.8159829271072304 0.1185379129193591 0
850 1.216833023974718 0.9175969504635847 0
851 1.187425154073555 0.8848284504992003 0
852 1.010477643642045 0.6153085853137521 0
853 0.9976144448684467 0.6299762523550263 0
854 0.9871368012264019 0.6146676670412741 0
855 1.057906172951505 0.3989278016325313 0
856 1.031997370579098 0.3891383565034799 0
857 1.05163520001717 0.380454111272434 0
858 0.9890769878094652 0.3852761399175629 0
859 1.001940186631846 0.3706084729892543 0
860 1.012863198822381 0.3853323330716913 0
861 1.026307149699128 0.04095456294451964 0
862 0.9220003224991299 0.9633603919270882 0
863 0.9720003224993162 0.9633603919270882 0
864 0.9056615219914751 0.7815699260173538 0
865 0.9352895999366236 0.7573342585317335 0
866 0.898760585117334 0.6083596161005178 0
867 0.885798990539959 0.5913327380357745 0
868 0.7759854506093069 0.9558218735989519 0
869 0.3719117177658363 0.04563216517155265 0
870 0.4248982877276962 0.04074226606053726 0
871 0.3968100054944168 0.0863744312320899 0
872 1.628088282267181 0.9543678348267843 0
873 1.575101712344994 0.9592577339232571 0
874 1.603189994612175 0.9136255687500414 0
875 1.101270292792869 0.3916548134772255 0
876 1.114213443576706 0.4086898626046503 0
877 1.820815824978132 0.04259662666490008 0
878 1.793755258968649 0.08531008246407179 0
879 1.772939433989991 0.04271345579917172 0
880 0.788588911451794 0.598569080581717 0
881 0.8101319913061702 0.6097884918864727 0
882 1.211416559978188 0.401430352411939 0
883 1.189843284782556 0.3902086684813894 0
884 0.2938544054658482 0.3304380639761882 0
885 0.2590835520487911 0.297622543335501 0
886 1.706145595917212 0.6695619355001868 0
887 1.740916449110053 0.7023774563406835 0
888 0.918407358748965 0.3247825170064708 0
889 0.8928920278311179 0.3384452417459592 0
890 1.230545095319775 0.9548127379630937 0
891 0.7694584139244888 0.04518932098826731 0
892 1.345201141266583 0.3584434900474465 0
893 1.36528690589592 0.3366573048241183 0
894 1.379873191320807 0.3706001884397113 0
895 0.6548433324979608 0.6414814026604463 0
896 0.6347583714898393 0.6632600611791823 0
897 0.620127612710422 0.6293922842441879 0
898 0.8608349266359823 0.6302871239557559 0
899 0.8847557566183282 0.6253077002015158 0
900 0.573237881943037 0.8915406006250338 0
901 1.426762118137219 0.1084593990144392 0
902 1.138975113165988 0.3696981115076787 0
903 1.115067884663219 0.3746039117310025 0
904 1.959223620430641 0.2318800165417083 0
905 1.909918573839615 0.2134043411409699 0
906 1.387139374187211 0.4096639957638973 0
907 0.6128606250657298 0.5903360029862246 0
908 0.9306139917664735 0.6330684074090365 0
909 1.091153348949151 0.2203091164360274 0
910 1.061933115119913 0.2436567760774234 0
911 1.815849141944937 0.1282246218025397 0
912 1.767972750956796 0.1283414509368114 0
913 0.8642034120143356 0.3525119383838853 0
914 0.8761393321879539 0.3773166031270645 0
915 0.8989139702898933 0.9297206427652016 0
916 0.8791995518013981 0.9043189078675831 0
917 0.9242862265060199 0.9013190489565579 0
918 0.9981660494591829 0.7687028353601851 0
919 1.006290048584674 0.8083268248015476 0
920 1.164302553678409 0.6107953520495488 0
921 1.18584957949156 0.629821621606115 0
922 1.006949158970911 0.649145982319839 0
923 0.04180985750395027 0.4248223874783622 0
924 0.04203181113930884 0.3750412256861698 0
925 0.08384166864325912 0.3998636131628676 0
926 1.958190142555435 0.5751776125221343 0
927 1.957968188911174 0.6249587743143837 0
928 1.916158331466608 0.6001363868375712 0
929 0.573933252290538 0.9607234828976816 0
930 1.426066747752361 0.03927651699300705 0
931 0.8742092263847427 0.7351768079267819 0
932 1.068270844780109 0.3665642286116263 0
933 0.4005478575820037 0.9156347834435259 0
934 0.3761039779261039 0.8735810559428709 0
935 1.599418749279355 0.08438311054700059 0
936 1.623871374853447 0.1263995440214677 0
937 1.367015538640452 0.8468796560103558 0
938 0.6330316700299172 0.1530972872498976 0
939 0.5735633244395113 0.04235742747267591 0
940 0.523563324439657 0.04235742747267591 0
941 1.426436675775528 0.9576425725165687 0
942 1.476436675775182 0.9576425725165687 0
943 0.03951061283937057 0.6219584191918998 0
944 0.04047882477765963 0.5734860194831379 0
945 0.0799894376170302 0.5954444386736508 0
946 1.960269612067672 0.3786499377723943 0
947 1.959469932245312 0.4265930103213504 0
948 1.919739544312984 0.4052429480947697 0
949 0.8646829270055159 0.3286335981549224 0
950 0.8169047257298857 0.7049108025116051 0
951 0.817936082034034 0.6710243571464944 0
952 1.235802820966194 0.600749186887926 0
953 1.21200916588398 0.6164009156411048 0
954 1.213567009057267 0.585500602989558 0
955 0.7657000479584728 0.3979700000919258 0
956 0.7872370620009547 0.415382031265517 0
957 1.392354051265814 0.7734948161102112 0
958 1.370671619615834 0.7502197056165462 0
959 1.413708297438234 0.7464155882067574 0
960 0.6077038582902652 0.2264748526623518 0
961 0.629413588368154 0.249733316625183 0
962 0.5863190020501541 0.2535677650801437 0
963 0.8769136477945081 0.9663602508381134 0
964 0.375980598686501 0.791350894847314 0
965 0.3981588778048251 0.7536278683768487 0
966 0.9908933598617535 0.3522375901686953 0
967 0.4748982877275505 0.04074226606053726 0
968 1.525101712345341 0.9592577339232571 0
969 0.7823359972181667 0.2681986485192566 0
970 0.814041274508098 0.2554473521696914 0
971 1.219532046528239 0.7309034361441288 0
972 1.190541695173942 0.7436035005297297 0
973 0.9634985340980866 0.885827897257226 0
974 0.9796585449977387 0.9300714016465722 0
975 1.332606163928096 0.3855277122606144 0
976 1.318019878503209 0.3515848286450214 0
977 0.6677294349468141 0.6142596582002082 0
978 0.6823601937262314 0.6481274351352027 0
979 1.62397782052966 0.208539472257948 0
980 1.601798146190038 0.2462494126197908 0
981 0.8269136477943001 0.9663602508381134 0
982 0.2269906511147434 0.9571543198902335 0
983 0.2769906511149515 0.9571543198902335 0
984 1.182537797255867 0.2949752748382088 0
985 1.181879756256512 0.3289401572510339 0
986 0.8873682118990425 0.5286705317638253 0
987 0.8860462370034008 0.5492805373702525 0
988 0.8658024022371853 0.539682726099429 0
989 1.112631788095809 0.4713294680932691 0
990 1.113952152294494 0.4507211397626948 0
991 1.134195987114049 0.4603189510318162 0
992 1.722939433989859 0.04271345579917172 0
993 0.3757093185760069 0.9571788333156042 0
994 0.4248385390076612 0.9584559501279217 0
995 1.62426205872828 0.04283650444519719 0
996 1.575156690550022 0.04154660610180341 0
997 0.8390991830403911 0.6234085812967305 0
998 0.8532837192211619 0.6000964654150601 0
999 1.160671995983384 0.3765535137525555 0
1000 1.146693466013557 0.3999214727978425 0
1001 0.8463677213957389 0.242499601772077 0
1002 0.8805206004706031 0.2333294974002943 0
1003 0.8316080390916489 0.1526273431464996 0
1004 0.1263015371528952 0.3245088479315463 0
1005 0.1240215478067002 0.3748748748888686 0
1006 1.87369846309305 0.6754911520345422 0
1007 1.875978452490669 0.625125125110839 0
1008 1.17053625974726 0.8504563454603937 0
1009 1.092052821290197 0.5706431749167296 0
1010 1.106668699075984 0.5899466441111465 0
1011 0.04180985750395027 0.4748223874785593 0
1012 1.958190142555435 0.525177612522008 0
1013 0.0822886822816099 0.4983084069599745 0
1014 0.04047882477765963 0.5234860194834738 0
1015 1.917660074800747 0.5017706228445238 0
1016 1.959469932245312 0.4765930103212101 0
1017 1.1587113687709 0.7565410759549498 0
1018 1.122954709438068 0.7686943626260062 0
1019 0.917271033336464 0.6725342090066719 0
1020 0.08479336505863393 0.300634111953902 0
1021 0.1270312799329115 0.2750605085147731 0
1022 1.915206634990876 0.6993658880474279 0
1023 1.872968720261579 0.7249394914521495 0
1024 1.124376364970199 0.2647362300731014 0
1025 1.646963193266047 0.1682280852325066 0
1026 1.671722381546427 0.2096414783379136 0
1027 0.2170163727244038 0.7447482314107867 0
1028 0.194797664153428 0.7031248067678226 0
1029 1.499367914310134 0.3441436174361286 0
1030 1.506300072667361 0.3790299283288789 0
1031 0.5006427140387459 0.6558153771127347 0
1032 0.4937124276339331 0.6209445670957802 0
1033 1.784945776708919 0.2543522540242018 0
1034 1.807208498174948 0.2958415080223022 0
1035 0.3529082647838109 0.8316839294746072 0
1036 0.3280995447684535 0.7902303790673877 0
1037 1.875966120711232 0.4319791502508947 0
1038 1.876765800533591 0.3840360777019385 0
1039 0.7864621489032523 0.7211013752935549 0
1040 0.8141451010202816 0.7375627033495973 0
1041 0.1679329535477236 0.2497185677981413 0
1042 0.2168931407709652 0.2272468491292176 0
1043 0.2174996392504144 0.2764635258234938 0
1044 1.832067046676159 0.7502814321649843 0
1045 1.78310685964406 0.7727531507582719 0
1046 1.782500361331655 0.7235364740325514 0
1047 0.1239676204746987 0.5679754299958433 0
1048 0.1229994085364097 0.616447829704605 0
1049 1.871510778387369 0.1241209512639407 0
1050 1.845728270375516 0.1671523197366803 0
1051 1.710534604728799 0.6311938842358114 0
1052 1.710058084317086 0.5891779091650848 0
1053 0.2894657714580334 0.3688055504116733 0
1054 0.2899422916936063 0.4108215252346155 0
1055 1.45479735014199 0.649282297883843 0
1056 1.423255617649791 0.6547349611281446 0
1057 1.431799429036129 0.6162042754927111 0
1058 0.5452026506990615 0.3507177017284945 0
1059 0.5767443832028192 0.3452650385830997 0
1060 0.5682005717285131 0.3837957241292587 0
1061 1.210202938009389 0.2785268835361767 0
1062 1.181934865888047 0.2619519963347093 0
1063 0.04276155391932508 0.2755928862691885 0
1064 0.04203181113930884 0.3250412256859617 0
1065 1.957238446079702 0.7244071137321226 0
1066 1.957968188911174 0.6749587743145153 0
1067 0.321911717765982 0.04563216517155265 0
1068 1.678088282266834 0.9543678348267843 0
1069 0.3257093185757988 0.9571788333156042 0
1070 1.674262058728412 0.04283650444519719 0
1071 0.9489443644080713 0.3920780637406255 0
1072 0.9236496667979983 0.3883229020876431 0
1073 1.671615935870214 0.1275015501014333 0
1074 1.008269267096989 0.6930530653839726 0
1075 0.1237995941713417 0.424656036681061 0
1076 0.1228490710728082 0.4714622792504553 0
1077 1.87620040613493 0.5753439633185895 0
1078 1.877608197320874 0.5275959007800779 0
1079 0.03951061283937057 0.6719584191915531 0
1080 1.960269612067672 0.32864993777254 0
1081 0.9020952824642114 0.556979405516056 0
1082 0.8805294728023543 0.5679915998516597 0
1083 0.3282229240080564 0.8724605401629446 0
1084 1.097909128616752 0.4430226557402414 0
1085 1.119473327634992 0.4320121386787884 0
1086 1.668387476725461 0.6420090996804702 0
1087 0.3316128992999555 0.3579903348714296 0
1088 1.080936015226236 0.3270616083116846 0
1089 1.242196380791017 0.1543599561591461 0
1090 0.1264247814534623 0.225843831820497 0
1091 1.873575218573984 0.77415616817787 0
1092 0.3026999696895021 0.9143331532058376 0
1093 0.1256999927635787 0.9517709744078392 0
1094 0.1756999927637867 0.9517709744078392 0
1095 0.9437841156095914 0.8604261623596074 0
1096 0.9060320385389522 0.8450378404038653 0
1097 1.229468571540663 0.6643145771623529 0
1098 1.208085391400487 0.645070205504483 0
1099 0.8429682481104829 0.75587899330604 0
1100 0.8725897966483106 0.7696836706651744 0
1101 0.04276155391932508 0.2255928862689805 0
1102 1.957238446079702 0.7744071137322543 0
1103 1.697201492719061 0.08554996024436891 0
1104 1.376858742962789 0.8103759638257927 0
1105 0.6232150133056225 0.1895857672205447 0
1106 0.596881447739432 0.9214970490176875 0
1107 0.6229481954513905 0.9607735661200059 0
1108 1.398183377703612 0.08381152096910005 0
1109 1.372116629949671 0.044535003976093 0
1110 0.2026906438776981 0.9089252942980727 0
1111 0.4519944343210365 0.1571043463335901 0
1112 0.4284964949991785 0.1136541891012587 0
1113 1.548005566194743 0.8428956535365717 0
1114 1.571503505235492 0.8863458108277633 0
1115 1.739141083323335 0.7949880085596157 0
1116 0.2608589170520855 0.2050119913430871 0
1117 1.717596892116309 0.2121852627881639 0
1118 0.03746790109783846 0.8248529165484676 0
1119 0.03746790109783846 0.8748529165482595 0
1120 1.870815824978264 0.04259662666490008 0
1121 0.1780591421423007 0.04514465733677842 0
1122 0.1280591421423857 0.04514465733677842 0
1123 1.821940857855692 0.9548553426649655 0
1124 1.8719408578559 0.9548553426649655 0
1125 0.5840681427117447 0.3180419969564227 0
1126 0.6070660637411964 0.3511200193571868 0
1127 1.415952947940013 0.6819429847280463 0
1128 1.392955026834152 0.6488649623369145 0
1129 0.9149014297500724 0.2215747806468317 0
1130 1.152274240885926 0.2452886294817462 0
1131 1.122380880721599 0.2316244719181063 0
1132 0.2820928741787707 0.7876238744314217 0
1133 1.041801961953617 0.6268188633957799 0
1134 1.054013029859772 0.6450576794898422 0
1135 1.033166355190245 0.6488559867215666 0
1136 0.8176831987209907 0.6399791504271684 0
1137 1.09076920886968 0.78055037668129 0
1138 1.057961973896445 0.7930665177034261 0
1139 1.078550204313551 0.6369664882763866 0
1140 1.069914597550179 0.6590036116021734 0
1141 1.182124931934987 0.3599853071912256 0
1142 0.2603230946091323 0.8282657564836138 0
1143 0.2373887579221396 0.7853262172203544 0
1144 0.5702898879344099 0.7304531456421552 0
1145 0.5358940155935303 0.710139819839479 0
1146 0.5723481774121014 0.6944288064071296 0
1147 1.429682046794913 0.2694460367761663 0
1148 1.464102834483262 0.2898162788378607 0
1149 1.427624971173318 0.3054763011174367 0
1150 1.742387194107949 0.1702930407938758 0
1151 1.765276331941443 0.2131482122695674 0
1152 0.2795042565472091 0.8724360267375739 0
1153 0.234800140290578 0.8701383695265068 0
1154 0.1952465931547653 0.7853901134629789 0
1155 1.275646178395184 0.5300436602104635 0
1156 1.267917920355852 0.5587949289108636 0
1157 1.245088922178812 0.5410976055359791 0
1158 0.7243537765098308 0.4699563162666801 0
1159 0.732082063300374 0.4412050623339481 0
1160 0.7549110363764964 0.4589023729198929 0
1161 1.50093270136636 0.5620615550437562 0
1162 1.49722109149755 0.597782981152837 0
1163 1.467052771397137 0.5750301861393289 0
1164 0.4990672991360236 0.4379384442281631 0
1165 0.5027789093075692 0.4022170183106681 0
1166 0.5329472290532098 0.4249698131921484 0
1167 1.264235443167261 0.5888888910703125 0
1168 1.262677599993975 0.6197892037218593 0
1169 0.735764547973166 0.4111111040387929 0
1170 0.7388252727645993 0.3789299851435579 0
1171 1.80973607870056 0.2124600320299138 0
1172 1.865397715142992 0.2083563614913147 0
1173 1.492691653774223 0.636564070251183 0
1174 1.484147842387885 0.6750947558866165 0
1175 0.5073083471191113 0.3634359292922578 0
1176 0.5158521585934175 0.3249052437460987 0
1177 0.1835094819396213 0.8647550240441125 0
1178 1.220746289909561 0.5483391292080348 0
1179 1.228474547948893 0.5195878605076347 0
1180 0.7792536882153601 0.4516608593269329 0
1181 0.771525401424817 0.4804121132596649 0
1182 1.359390243291733 0.4267421401108208 0
1183 1.332654438754244 0.4468149040703644 0
1184 1.333051622153982 0.412459137622583 0
1185 0.6406097517767324 0.5732578565811688 0
1186 0.6673455404029862 0.5531850845640326 0
1187 0.6669483623447976 0.5875408537083157 0
1188 0.08294263124837012 0.2018580578579484 0
1189 1.917057368754951 0.7981419421431615 0
1190 0.5641662286869682 0.413283592302843 0
1191 0.5604546185154227 0.4490050182203379 0
1192 1.435833770653131 0.5867164065466026 0
1193 1.43954538052194 0.5509949804375218 0
1194 0.08377001397882972 0.6950783416675026 0
1195 0.04425940113945914 0.7231199224766429 0
1196 0.8736315033447446 0.4124206545016129 0
1197 0.8855042066321471 0.3962056738227462 0
1198 0.8992695584409214 0.4163167040451524 0
1199 1.720293311131661 0.1273785014554078 0
1200 1.00765822250254 0.966711009719484 0
1201 0.9907651576982299 0.03363413621780748 0
1202 0.818471896831215 0.2219822074141212 0
1203 1.182541601365017 0.7777647929282447 0
1204 0.04018107732904504 0.126265171589592 0
1205 0.04018107732904504 0.1762651715898001 0
1206 1.959818922675249 0.8737348284105123 0
1207 1.959818922675249 0.8237348284103806 0
1208 1.884213284599817 0.07919916704341853 0
1209 0.8166500201801398 0.04018140959939469 0
1210 1.186287928657717 0.9627842125004911 0
1211 0.3033358196699774 0.220155921656185 0
1212 0.3471177944777147 0.2205060473537855 0
1213 1.69666418096411 0.7798440781516329 0
1214 1.652882206212706 0.7794939523945319 0
1215 1.47988978453774 0.7150840851207401 0
1216 1.474458379704021 0.756022942711313 0
1217 1.440822133921933 0.7287518411098494 0
1218 0.5201102164946959 0.2849159145676461 0
1219 0.5255416213941447 0.2439770570351346 0
1220 0.5591778670728165 0.271248158649824 0
1221 1.646252830128131 0.4588270199875542 0
1222 1.680207987628963 0.4821723398403082 0
1223 1.643406552054178 0.499214518540379 0
1224 0.3537587368736144 0.5411555511857111 0
1225 0.3198055071331092 0.5178073266611442 0
1226 0.3565953765888106 0.500782575958639 0
1227 0.9607985751472812 0.3527752061655355 0
1228 0.9735379593901042 0.334460516499105 0
1229 1.578871633718222 0.4145873180718976 0
1230 1.54016978664134 0.3977098854231085 0
1231 1.575391916835482 0.3793181243419153 0
1232 0.4211371156379025 0.5853990469884308 0
1233 0.4598418101105875 0.602268096832525 0
1234 0.4246284285335851 0.6206462237769219 0
1235 0.04425940113945914 0.7731199224762961 0
1236 0.0817273022372976 0.797972839024764 0
1237 0.2755199727444116 0.03375858205482664 0
1238 1.724480027258869 0.9662414179476893 0
1239 1.526571583743445 0.6235954391556104 0
1240 0.4734284172019252 0.3764045603282724 0
1241 0.8470015558782886 0.5521389994318395 0
1242 0.8480142014835572 0.5767553272309454 0
1243 1.715808750407492 0.5053555721217926 0
1244 1.712350696326067 0.5486373041536039 0
1245 0.2841931783318719 0.4946415222800922 0
1246 0.2876512324716887 0.4513597902981942 0
1247 1.152996295584419 0.4478624027996067 0
1248 1.151953350071843 0.4232437488719806 0
1249 0.6220154571992722 0.04173696514015013 0
1250 1.377990354702916 0.9582608581913479 0
1251 0.4556687952420787 0.1940014736456343 0
1252 0.4108707754631224 0.182720973393487 0
1253 1.54433120553007 0.8059985261569074 0
1254 1.589129225116321 0.8172790264293481 0
1255 1.035757594054211 0.8011082657123434 0
1256 0.8483235307739303 0.5315289938254124 0
1257 0.8307762573562845 0.5217464264664833 0
1258 1.151675931385734 0.468470731130181 0
1259 1.169223204852721 0.4782532984729035 0
1260 0.2327017421345841 0.6283548590210219 0
1261 0.2798411972693969 0.62559404551775 0
1262 1.386742190787474 0.4440197622116787 0
1263 0.6132578031239185 0.5559802338419415 0
1264 1.086979097458526 0.6717798120910633 0
1265 1.718655028481445 0.4649680735689679 0
1266 0.2813565386166758 0.5350144975071643 0
1267 1.767130899594895 0.3712676601097437 0
1268 1.720094025535501 0.3741854492502653 0
1269 1.259538555417857 0.651300411331637 0
1270 1.254762149165612 0.6839654889545171 0
1271 0.7422147988836465 0.3472053104983924 0
1272 0.7470976847550732 0.3150445395134359 0
1273 0.1463760818073232 0.8579352711524475 0
1274 0.178485578220203 0.8191483463808816 0
1275 0.4902211147382506 0.5856973903072891 0
1276 1.509779789550101 0.4142991220588612 0
1277 1.294792699383633 0.577834945744797 0
1278 0.7052072881065005 0.4221650473855801 0
1279 0.1215180383465175 0.5201259112553698 0
1280 1.878887987010751 0.47901129857928 0
1281 1.179939381639448 0.2288402381797141 0
1282 1.508366788464159 0.7869851699931673 0
1283 1.549490447385737 0.7613685428859438 0
1284 0.4916332124580085 0.213014829769347 0
1285 0.4505095536000944 0.2386314568292439 0
1286 1.517784088169972 0.7023658574880801 0
1287 0.4822159129147458 0.2976341421314094 0
1288 1.563628908519448 0.6080224229963587 0
1289 1.559099470796121 0.6468035120947049 0
1290 0.4363710924511415 0.3919775764144444 0
1291 0.4409005302626837 0.353196487396034 0
1292 1.622621526040156 0.7970309313635553 0
1293 0.3773784746252316 0.2029690684316655 0
1294 1.611772579232855 0.4360323778391646 0
1295 1.64857401480764 0.4189901991390939 0
1296 0.3882361701951079 0.5639539872080168 0
1297 0.3514463007394065 0.580978737910522 0
1298 0.2255199727445227 0.03375858205482664 0
1299 1.7744800272588 0.9662414179476893 0
1300 1.50707216682324 0.4882577480711388 0
1301 1.509892945772988 0.4503850782057494 0
1302 1.540828724574332 0.4708517490184803 0
1303 0.4929278339240937 0.5117422512552998 0
1304 0.4901070549418589 0.5496149210668329 0
1305 0.4591712761971397 0.5291482502325008 0
1306 1.652515744337717 0.370025038765902 0
1307 1.686995995232993 0.3928196809142915 0
1308 0.3474618823401761 0.6298465164042588 0
1309 0.3129844490186826 0.6070480803819531 0
1310 0.8851791729983253 0.1972797402630442 0
1311 0.9166091632674677 0.6500164915100346 0
1312 0.9084968789189092 0.6266923082279481 0
1313 1.118525774393588 0.8025583824087488 0
1314 0.7889688902998131 0.6574042677362366 0
1315 1.384300427906077 0.5103797541404949 0
1316 1.411171801172711 0.5299323499223225 0
1317 1.381455006511299 0.543128605062968 0
1318 0.6156995647099062 0.4896202413251358 0
1319 0.5888281961980082 0.4700676479304111 0
1320 0.618544986661079 0.4568713907257571 0
1321 1.091341594259927 0.3731926546552623 0
1322 1.504386163445265 0.524016589457059 0
1323 1.534554483545678 0.546769384470567 0
1324 0.4956138370305194 0.4759834097653055 0
1325 0.4654455172848787 0.4532306148838252 0
1326 1.08206843665046 0.3495133268654033 0
1327 0.9017773872841307 0.3812126526706039 0
1328 1.576550449038713 0.4544241389203578 0
1329 0.4234495517721104 0.5455758602636199 0
1330 0.554923193457824 0.5175127103097108 0
1331 0.5265496157752385 0.4964500805996376 0
1332 0.5576091965642498 0.4817538688197166 0
1333 1.445076805294692 0.4824872881291287 0
1334 1.473450384643921 0.5035499186443281 0
1335 1.442390801916718 0.5182461295150488 0
1336 1.366577115007604 0.2279045780018312 0
1337 1.33442138380394 0.2100551368848042 0
1338 1.37069627033838 0.1912646874171996 0
1339 0.6330115640735263 0.7711289927727244 0
1340 0.6729658627303201 0.7931138845418586 0
1341 0.6369773816381443 0.8125729532229649 0
1342 1.211051045055684 0.3425953119798678 0
1343 1.190723770415442 0.5818000570937281 0
1344 1.214517425497656 0.5661483283405493 0
1345 0.8105471366319914 0.4198115152428014 0
1346 0.7859493977980763 0.4345806029644452 0
1347 1.573729670088964 0.4922968087857473 0
1348 0.4262703307543451 0.5077031904520868 0
1349 0.9582684563932893 0.3105255690659404 0
1350 1.640435621359305 0.5383885768233339 0
1351 1.606480463858474 0.5150432569705798 0
1352 0.359566628607088 0.4616080336222947 0
1353 0.3935198583475932 0.4849562581468616 0
1354 1.146717245027017 0.5922384613831781 0
1355 1.126113358966968 0.5955070219903678 0
1356 0.8526317074228793 0.4141355368915302 0
1357 1.25175140630955 0.7177096940679155 0
1358 1.24659128754937 0.7516334754268112 0
1359 0.7501679211690362 0.281348807693462 0
1360 0.7539773738944435 0.2480801169859409 0
1361 1.235447013939982 0.4167711202876231 0
1362 1.235326674695953 0.3889812297957435 0
1363 0.7645523105706113 0.5832285340448576 0
1364 0.7646794061055872 0.6110185144800512 0
1365 0.1133713541808572 0.6605527561267297 0
1366 0.1181201424809458 0.7117142594118195 0
1367 0.7401092303106749 0.8038871882247318 0
1368 0.7545569297192855 0.7657941104507175 0
1369 1.398028092513507 0.2471100937949844 0
1370 0.6018835663671658 0.7526650968318183 0
1371 1.329360602019699 0.5065174546476269 0
1372 1.331565315343364 0.4752784032863578 0
1373 1.35678834656833 0.4923369579198713 0
1374 0.6706393661869917 0.4934825284672862 0
1375 0.6684346535179638 0.5247215801254882 0
1376 0.643211642503949 0.5076630357786838 0
1377 1.959223620430641 0.2818800165415625 0
1378 1.414254272125221 0.4620625584323023 0
1379 1.445313854852424 0.4473663475615816 0
1380 0.5857457253298757 0.5379374393883936 0
1381 0.5546861445408644 0.5526336511683145 0
1382 0.908343088588947 0.4309105032311674 0
1383 1.237223459919798 0.3590450956009621 0
1384 1.236978284241322 0.3279999456607705 0
1385 0.762783667451179 0.6409546230378063 0
1386 0.7630365507642223 0.6719998297571323 0
1387 1.33045854215743 0.2855978169506446 0
1388 1.361753205979067 0.2659005432625891 0
1389 1.361909519663333 0.3048033327437979 0
1390 0.6692370682215401 0.7135095518435294 0
1391 0.6378720474593416 0.733206028150712 0
1392 0.6381090705151795 0.6950456559026232 0
1393 0.8744205437172152 0.8022721113966119 0
1394 1.301306373683478 0.5185999417997308 0
1395 1.326529404908444 0.5356584964332443 0
1396 0.6986935903173574 0.481400039247413 0
1397 0.6734705793033426 0.4643414949006085 0
1398 1.119051224864878 0.2008615158446722 0
1399 1.189339431987219 0.4907428728386185 0
1400 1.207420304902372 0.5039113579045459 0
1401 1.186051042764491 0.513660899113763 0
1402 0.8106604785464867 0.5092570811328905 0
1403 0.7925795900295595 0.4960885880786712 0
1404 0.8139489417806079 0.4863390927209242 0
1405 1.275563865147274 0.7761879811140782 0
1406 1.314064010387047 0.7578693334352989 0
1407 1.310817228203641 0.7956175811987791 0
1408 0.7248414956451238 0.2235997011634925 0
1409 0.686303871226789 0.2419353401837687 0
1410 0.6893360690265998 0.2043047651871149 0
1411 1.02961181533676 0.6115025619076455 0
1412 0.9699428162837002 0.3890821632536882 0
1413 1.570758739394092 0.5314708670687023 0
1414 0.4292415827726226 0.4685286481157425 0
1415 1.239026195401969 0.2958324497623935 0
1416 1.238423264034149 0.262809171258894 0
1417 0.7612979268635498 0.7036416642153114 0
1418 0.7585383021539457 0.7362935650533036 0
1419 1.567305277315187 0.5695158326553995 0
1420 0.4326950448781268 0.4304836825786 0
1421 0.6033933507276408 0.6829565374863649 0
1422 1.396581569717556 0.3169600311360627 0
1423 1.386505141229742 0.4791407027792258 0
1424 0.6134948520408783 0.5208592929833378 0
1425 1.599833164367862 0.5927239055944939 0
1426 0.4001671579388854 0.4072756096463617 0
1427 1.490648434814726 0.3124320965638538 0
1428 0.5093534729199869 0.6875148138993721 0
1429 1.339474169121078 0.8138026257045632 0
1430 0.6606151013325599 0.186151924236744 0
1431 0.03660254037843801 0.9133974596213539 0
1432 0.03660254037843801 0.963397459621562 0
1433 1.963397459621421 0.03660254037851845 0
1434 1.91339745962129 0.03660254037851845 0
1435 0.086602540378646 0.963397459621562 0
1436 1.913397459621194 0.9633974596214231 0
1437 1.963397459621403 0.9633974596214231 0
1438 1.963397459621403 0.9133974596212915 0
1439 0.03660254037832192 0.03660254037840452 0
1440 0.03660254037832192 0.08660254037861251 0
1441 0.0866025403782216 0.03660254037840452 0
1442 0.1131678938612092 0.8766238909563069 0
1443 0.1081439901417909 0.831017213293076 0
1444 1.919493232498313 0.3105299543148361 0
1445 1.591628112631061 0.6686614975979214 0
1446 1.630077631742999 0.6558038234401493 0
1447 1.625548948801937 0.6932348251026177 0
1448 0.4083718884628326 0.3313385018886083 0
1449 0.3699223694098351 0.3441961759590753 0
1450 0.3744510523607676 0.3067651743654775 0
1451 1.019160226877067 0.6673847984139013 0
1452 1.287971177618924 0.6394401155140236 0
1453 0.7122792988983397 0.3603464144452596 0
1454 1.278477375506438 0.5009026184248462 0
1455 0.7215225633934799 0.4990973498333577 0
1456 0.7661582855988677 0.5303665128401449 0
1457 0.7451040969941252 0.5146900380211386 0
1458 0.7682369381906957 0.5033301016716312 0
1459 1.233841502980382 0.4696333786817671 0
1460 1.254895746026904 0.485309881284856 0
1461 1.231762937171622 0.4966698342324901 0
1462 1.316315270003653 0.6262175423095608 0
1463 1.313176225427535 0.6577287499193385 0
1464 0.6837264738187023 0.373746877776503 0
1465 0.6871159999377495 0.3420222031313375 0
1466 0.7351127040149157 0.687192019516881 0
1467 0.7014240856958106 0.6970915167852503 0
1468 0.7031627095964831 0.6654496823270712 0
1469 1.265198610266082 0.3122822333834878 0
1470 1.298930688634213 0.3023076719584821 0
1471 1.296882777473566 0.3344751678568592 0
1472 1.675069097546028 0.5631004434046138 0
1473 1.638143009350324 0.5789291818348148 0
1474 0.324933206070223 0.4368960863704933 0
1475 0.3618576878290056 0.421069768558716 0
1476 1.298774374949947 0.2634048824772733 0
1477 0.7011870626399727 0.735251889033339 0
1478 0.9116147906761798 0.3062622443130502 0
1479 1.211122796673659 0.45510678726661 0
1480 1.23425560552894 0.4437468343189758 0
1481 0.7888764713561283 0.5448928383185805 0
1482 0.7657436301595577 0.5562527746680879 0
1483 1.634466640554585 0.6174357721757739 0
1484 0.3655337354020204 0.3825636623945603 0
1485 0.8697499450791484 0.5836338698899708 0
1486 1.190592466990602 0.4685037572636864 0
1487 0.809406905605236 0.5314959218242302 0
1488 1.130256467254447 0.4163883466271038 0
1489 1.550312730004913 0.7242238429912966 0
1490 1.586277147070823 0.7432371991550367 0
1491 0.4496872711148946 0.2757761566239836 0
1492 0.4137228538989648 0.2567628005002708 0
1493 1.280555941315198 0.4738661628741232 0
1494 0.7194439108016518 0.5261337610018715 0
1495 1.554570787855058 0.684234513757173 0
1496 0.4454292132136162 0.3157654858024362 0
1497 1.281821390186743 0.7046955282371996 0
1498 0.71873906143135 0.2949260079801202 0
1499 1.243344505365964 0.7893817231902914 0
1500 0.7570095716942544 0.2104495419892871 0
1501 1.261253913881591 0.3743858634766463 0
1502 0.7387470665699963 0.6256140765009469 0
1503 1.17843060554123 0.1873707219636044 0
1504 1.208091230543351 0.2040340888165674 0
1505 1.476023231799009 0.4317051211115198 0
1506 0.5239776724652045 0.568291391330088 0
1507 0.7011715077699303 0.8061963948809936 0
1508 1.378685975401138 0.5736814518446826 0
1509 1.351814602134504 0.554128856062855 0
1510 0.621320978126719 0.4263126156379428 0
1511 0.6481923466386168 0.4458652090326675 0
1512 1.873926382164659 0.2587120534342034 0
1513 0.8710173381530897 0.8376051370520091 0
1514 1.492705510436322 0.2764018322225834 0
1515 0.1316965051179739 0.7455259863030019 0
1516 0.1612978453200014 0.7110004007622289 0
1517 1.299672281178283 0.2301109143627991 0
1518 1.303791436509059 0.1934710237781674 0
1519 1.112569171242636 0.8356193056937007 0
1520 1.077572979696795 0.8526689601621866 0
1521 0.8920551333044806 0.167033351581326 0
1522 0.5072951834422954 0.7235391531343978 0
1523 1.323760373798283 0.5662113432149588 0
1524 0.6762465707689825 0.4337827198127943 0
1525 1.716152296005424 0.4231506096234572 0
1526 0.2838256156686273 0.5767262670240132 0
1527 1.603417591752627 0.3557317603924285 0
1528 0.3965835878320643 0.6442029643169107 0
1529 1.258165720246705 0.4312977117027803 0
1530 0.7418341248133509 0.5687022085664221 0
1531 0.9571555237433016 0.3735481803220632 0
1532 1.144754671811024 0.8237632916384168 0
1533 1.320077896609692 0.5963053053744077 0
1534 0.6799290554417747 0.4036887615176391 0
1535 0.8576743040250114 0.1787880683347886 0
1536 0.6222528251038895 0.8915906838473581 0
1537 0.6377704698012163 0.8480960402234017 0
1538 1.37281200033453 0.1137178859975251 0
1539 1.369965639951427 0.1558905051715184 0
1540 0.828616032072329 0.4182871965238633 0
1541 1.172188045323661 0.5825954410763661 0
1542 1.345282944418303 0.6145939397797227 0
1543 0.6547657564811844 0.385364550203717 0
1544 1.305226694205613 0.4609954007981201 0
1545 0.6947732640860289 0.5390045772526351 0
1546 1.034486463316322 0.6927630697857003 0
1547 1.062441923004747 0.6798710033045188 0
1548 0.6972056902053124 0.764752434430753 0
1549 1.308818470834072 0.7224224770643329 0
1550 1.344071833890438 0.741852077149034 0
1551 0.6915700861294437 0.2773596260670019 0
1552 0.6560646595109197 0.2580646900906243 0
1553 1.842898023558541 0.3668557582140614 0
1554 1.886671447160293 0.3401195560579364 0
1555 0.1123025331418087 0.9151684340294013 0
1556 0.1573495370385258 0.633083747448922 0
1557 1.237812394164268 0.18804568692831 0
1558 1.239321170262486 0.2295152031444197 0
1559 1.197903051267737 0.5446385833122049 0
1560 0.8025637628463969 0.4560903433042173 0
1561 1.281645064726078 0.4454026636581298 0
1562 0.7183547976866742 0.5545972654404159 0
1563 1.268144427655066 0.2468207693706365 0
1564 1.305870359390608 0.405600476220158 0
1565 0.6944652235730681 0.594186886183072 0
1566 0.7924056318978527 0.1958214822258322 0
1567 1.208323189301254 0.8044578467502216 0
1568 0.7160488120453364 0.6382279378668333 0
1569 1.284287800135079 0.3615593900700271 0
1570 0.8247320787854936 0.1828737318282178 0
1571 1.176492862898213 0.8173954221754418 0
1572 1.28283647313712 0.4184269496267771 0
1573 0.717163478097728 0.5815730248171856 0
1574 0.6599470246358432 0.3244558212182193 0
1575 0.6884998497154806 0.3110553578869759 0
1576 1.340173306074864 0.6754556987464718 0
1577 1.311829213690134 0.6886782719509346 0
1578 0.1149354901834116 0.7792842192209046 0
1579 1.809001924906849 0.3743956110590599 0
1580 1.404292038160932 0.5921690697909041 0
1581 0.5957079611907261 0.4078309291574482 0
1582 1.885625455523263 0.2933496348269589 0
1583 0.1908493558719523 0.6252081534545157 0
1584 1.365426080062858 0.7147728492455802 0
1585 0.6346798032708088 0.2851576025084163 0
1586 0.729392707679583 0.748334399372474 0
1587 1.064135893982967 0.8224561444729499 0
1588 1.374651633784136 0.6031693207907911 0
1589 0.6253553211682639 0.3968247474643586 0
1590 1.818907571533551 0.3304790894150578 0
1591 1.84110459682664 0.2883016551773037 0
1592 1.419139702271953 0.7054767306161843 0
1593 0.5808875971507053 0.2945066226126552 0
1594 0.07678361770736696 0.1128677119677885 0
1595 1.923216382296652 0.887132288032067 0
1596 0.1812213015163999 0.6693130798766402 0
1597 0.9366506066028466 0.3164778598025247 0
1598 1.183789012018706 0.5299724017758718 0
1599 1.165708139103554 0.5168039167099443 0
1600 0.8162352756152256 0.4700655392140682 0
1601 0.8343161641321528 0.4832340322682875 0
1602 1.370889007178097 0.6330815577259441 0
1603 0.6291527395451915 0.3668828637232224 0
1604 0.07407044147627648 0.8882503761700298 0
1605 0.114661682520808 0.08174719771518293 0
1606 1.885338317477511 0.9182528022863886 0
1607 1.144554843267929 0.1830292268215664 0
1608 1.282391014911235 0.3914955242648085 0
1609 0.7179445506997446 0.6082918293090782 0
1610 0.1581131930224672 0.7785703605713139 0
1611 1.11332731149548 0.1717138713394876 0
1612 0.8536335820287437 0.470617040594533 0
1613 1.146390721175837 0.5294209084075462 0
1614 0.3842844562366478 0.2371550796276512 0
1615 1.615715544624198 0.7628449200806604 0
1616 0.8695571076316622 0.8684846107070832 0
1617 0.8409998806382792 0.4514609641326425 0
1618 1.159024422515019 0.5485769848910242 0
1619 1.616537827243373 0.7257002201860132 0
1620 0.383462173751448 0.2742997794223908 0
1621 1.273426320510151 0.1798410704869984 0
1622 1.363586337468319 0.660289581325846 0
1623 1.362239325730918 0.6912391033574421 0
1624 0.636476499054117 0.3396598220965453 0
1625 0.6378603488318482 0.3086929768521837 0
1626 1.1775601476068 0.5477816009083862 0
1627 0.8229309851979416 0.4529852828515806 0
1628 1.17313846176405 0.5632431664273574 0
1629 0.8273283678694505 0.4374857682227916 0
1630 1.388839111456314 0.6996067318249544 0
1631 0.6112092776890824 0.3003616033867423 0
1632 1.113325604789464 0.1432397361062822 0
$EndNodes
$Elements
854
1 8 2 1 1 1 9 28
2 8 2 1 1 9 10 29
3 8 2 1 1 10 11 30
4 8 2 1 1 11 12 31
5 8 2 1 1 12 13 32
6 8 2 1 1 13 14 33
7 8 2 1 1 14 15 34
8 8 2 1 1 15 16 35
9 8 2 1 1 16 17 36
10 8 2 1 1 17 18 37
11 8 2 1 1 18 19 38
12 8 2 1 1 19 20 39
13 8 2 1 1 20 21 40
14 8 2 1 1 21 22 41
15 8 2 1 1 22 23 42
16 8 2 1 1 23 24 43
17 8 2 1 1 24 25 44
18 8 2 1 1 25 26 45
19 8 2 1 1 26 27 46
20 8 2 1 1 27 2 47
21 8 2 2 2 2 48 57
22 8 2 2 2 48 49 58
23 8 2 2 2 49 50 59
24 8 2 2 2 50 51 60
25 8 2 2 2 51 52 61
26 8 2 2 2 52 53 62
27 8 2 2 2 53 54 63
28 8 2 2 2 54 55 64
29 8 2 2 2 55 56 65
30 8 2 2 2 56 3 66
31 8 2 3 3 3 67 86
32 8 2 3 3 67 68 87
33 8 2 3 3 68 69 88
34 8 2 3 3 69 70 89
35 8 2 3 3 70 71 90
36 8 2 3 3 71 72 91
37 8 2 3 3 72 73 92
38 8 2 3 3 73 74 93
39 8 2 3 3 74 75 94
40 8 2 3 3 75 76 95
41 8 2 3 3 76 77 96
42 8 2 3 3 77 78 97
43 8 2 3 3 78 79 98
44 8 2 3 3 79 80 99
45 8 2 3 3 80 81 100
46 8 2 3 3 81 82 101
47 8 2 3 3 82 83 102
48 8 2 3 3 83 84 103
49 8 2 3 3 84 85 104
50 8 2 3 3 85 4 105
51 8 2 4 4 4 106 115
52 8 2 4 4 106 107 116
53 8 2 4 4 107 108 117
54 8 2 4 4 108 109 118
55 8 2 4 4 109 110 119
56 8 2 4 4 110 111 120
57 8 2 4 4 111 112 121
58 8 2 4 4 112 113 122
59 8 2 4 4 113 114 123
60 8 2 4 4 114 1 124
61 8 2 5 5 5 125 128
62 8 2 5 5 125 126 129
63 8 2 5 5 126 127 130
64 8 2 5 5 127 6 131
65 8 2 5 6 6 132 135
66 8 2 5 6 132 133 136
67 8 2 5 6 133 134 137
68 8 2 5 6 134 7 138
69 8 2 5 7 7 139 142
70 8 2 5 7 139 140 143
71 8 2 5 7 140 141 144
72 8 2 5 7 141 8 145
73 8 2 5 8 8 146 149
74 8 2 5 8 146 147 150
75 8 2 5 8 147 148 151
76 8 2 5 8 148 5 152
77 9 2 6 1 331 159 464 504 505 506
78 9 2 6 1 333 160 465 507 508 509
79 9 2 6 1 48 49 392 58 510 511
80 9 2 6 1 17 321 454 512 513 514
81 9 2 6 1 167 340 452 515 516 517
82 9 2 6 1 168 342 451 518 519 520
83 9 2 6 1 75 322 455 521 522 523
84 9 2 6 1 306 325 461 524 525 526
85 9 2 6 1 326 170 386 527 528 529
86 9 2 6 1 221 233 387 530 531 532
87 9 2 6 1 233 336 387 533 534 531
88 9 2 6 1 271 363 364 535 536 537
89 9 2 6 1 213 372 398 538 539 540
90 9 2 6 1 219 355 356 541 542 543
91 9 2 6 1 336 170 387 544 545 534
92 9 2 6 1 325 306 481 524 546 547
93 9 2 6 1 73 167 452 548 517 549
94 9 2 6 1 15 168 451 550 520 551
95 9 2 6 1 48 392 474 511 552 553
96 9 2 6 1 316 315 359 554 555 556
97 9 2 6 1 318 317 367 557 558 559
98 9 2 6 1 337 169 345 560 561 562
99 9 2 6 1 378 302 380 563 564 565
100 9 2 6 1 383 303 385 566 567 568
101 9 2 6 1 170 326 387 527 569 545
102 9 2 6 1 292 396 424 570 571 572
103 9 2 6 1 281 426 470 573 574 575
104 9 2 6 1 359 315 462 555 576 577
105 9 2 6 1 367 317 463 558 578 579
106 9 2 6 1 337 345 460 562 580 581
107 9 2 6 1 351 425 500 582 583 584
108 9 2 6 1 169 388 472 585 586 587
109 9 2 6 1 393 296 416 588 589 590
110 9 2 6 1 394 298 418 591 592 593
111 9 2 6 1 213 215 372 594 595 538
112 9 2 6 1 380 173 427 596 597 598
113 9 2 6 1 385 174 429 599 600 601
114 9 2 6 1 431 247 469 602 603 604
115 9 2 6 1 432 195 468 605 606 607
116 9 2 6 1 285 286 300 608 609 610
117 9 2 6 1 321 313 454 611 612 513
118 9 2 6 1 322 314 455 613 614 522
119 9 2 6 1 388 327 472 615 616 586
120 9 2 6 1 296 295 416 617 618 589
121 9 2 6 1 298 297 418 619 620 592
122 9 2 6 1 177 337 500 621 622 623
123 9 2 6 1 288 287 291 624 625 626
124 9 2 6 1 170 336 453 544 627 628
125 9 2 6 1 271 364 365 537 629 630
126 9 2 6 1 219 356 357 543 631 632
127 9 2 6 1 230 321 425 633 634 635
128 9 2 6 1 312 331 464 636 506 637
129 9 2 6 1 311 333 465 638 509 639
130 9 2 6 1 167 328 340 640 641 515
131 9 2 6 1 168 329 342 642 643 518
132 9 2 6 1 425 321 483 634 644 645
133 9 2 6 1 281 470 481 575 646 647
134 9 2 6 1 301 389 401 648 649 650
135 9 2 6 1 177 425 483 651 645 652
136 9 2 6 1 329 168 440 642 653 654
137 9 2 6 1 328 167 441 640 655 656
138 9 2 6 1 306 373 481 657 658 546
139 9 2 6 1 299 395 403 659 660 661
140 9 2 6 1 425 177 500 651 623 583
141 9 2 6 1 322 415 501 662 663 664
142 9 2 6 1 380 302 448 564 665 666
143 9 2 6 1 385 303 449 567 667 668
144 9 2 6 1 229 396 487 669 670 671
145 9 2 6 1 300 286 330 609 672 673
146 9 2 6 1 363 271 444 535 674 675
147 9 2 6 1 281 304 426 676 677 573
148 9 2 6 1 355 219 445 541 678 679
149 9 2 6 1 177 19 337 680 681 621
150 9 2 6 1 169 21 388 682 683 585
151 9 2 6 1 170 79 386 684 685 528
152 9 2 6 1 389 222 401 686 687 649
153 9 2 6 1 372 308 398 688 689 539
154 9 2 6 1 429 174 477 600 690 691
155 9 2 6 1 427 173 478 597 692 693
156 9 2 6 1 288 291 292 626 694 695
157 9 2 6 1 321 17 483 512 696 644
158 9 2 6 1 134 133 289 137 697 698
159 9 2 6 1 279 281 481 699 647 700
160 9 2 6 1 395 274 403 701 702 660
161 9 2 6 1 322 75 484 521 703 704
162 9 2 6 1 318 367 368 559 705 706
163 9 2 6 1 346 431 469 707 604 708
164 9 2 6 1 347 432 468 709 607 710
165 9 2 6 1 316 359 369 556 711 712
166 9 2 6 1 160 451 465 713 714 508
167 9 2 6 1 159 452 464 715 716 505
168 9 2 6 1 415 322 484 662 704 717
169 9 2 6 1 231 230 425 718 635 719
170 9 2 6 1 292 291 396 694 720 570
171 9 2 6 1 159 331 349 504 721 722
172 9 2 6 1 160 333 348 507 723 724
173 9 2 6 1 330 234 389 725 726 727
174 9 2 6 1 396 231 424 728 729 571
175 9 2 6 1 444 260 479 730 731 732
176 9 2 6 1 445 208 480 733 734 735
177 9 2 6 1 183 153 184 736 737 738
178 9 2 6 1 235 154 236 739 740 741
179 9 2 6 1 418 297 419 620 742 743
180 9 2 6 1 229 231 396 744 728 669
181 9 2 6 1 416 295 417 618 745 746
182 9 2 6 1 359 353 369 747 748 711
183 9 2 6 1 227 229 323 749 750 751
184 9 2 6 1 367 361 368 752 753 705
185 9 2 6 1 289 133 461 697 754 755
186 9 2 6 1 368 444 479 756 732 757
187 9 2 6 1 369 445 480 758 735 759
188 9 2 6 1 8 153 183 760 736 761
189 9 2 6 1 6 154 235 762 739 763
190 9 2 6 1 173 380 448 596 666 764
191 9 2 6 1 174 385 449 599 668 765
192 9 2 6 1 302 378 410 563 766 767
193 9 2 6 1 303 383 411 566 768 769
194 9 2 6 1 351 424 425 770 771 582
195 9 2 6 1 419 297 446 742 772 773
196 9 2 6 1 148 147 482 151 774 775
197 9 2 6 1 417 295 447 745 776 777
198 9 2 6 1 414 330 426 778 779 780
199 9 2 6 1 338 290 450 781 782 783
200 9 2 6 1 292 350 395 784 785 786
201 9 2 6 1 215 227 372 787 788 595
202 9 2 6 1 158 146 183 789 790 791
203 9 2 6 1 157 132 235 792 793 794
204 9 2 6 1 393 377 428 795 796 797
205 9 2 6 1 394 382 430 798 799 800
206 9 2 6 1 161 352 359 801 802 803
207 9 2 6 1 162 360 367 804 805 806
208 9 2 6 1 187 185 402 807 808 809
209 9 2 6 1 239 237 404 810 811 812
210 9 2 6 1 161 81 352 813 814 801
211 9 2 6 1 162 23 360 815 816 804
212 9 2 6 1 140 164 309 817 818 819
213 9 2 6 1 126 163 310 820 821 822
214 9 2 6 1 158 183 307 791 823 824
215 9 2 6 1 157 235 305 794 825 826
216 9 2 6 1 20 169 337 827 560 828
217 9 2 6 1 296 393 428 588 797 829
218 9 2 6 1 298 394 430 591 800 830
219 9 2 6 1 423 379 497 831 832 833
220 9 2 6 1 421 384 496 834 835 836
221 9 2 6 1 352 353 359 837 747 802
222 9 2 6 1 360 361 367 838 752 805
223 9 2 6 1 267 279 373 839 840 841
224 9 2 6 1 335 414 415 842 843 844
225 9 2 6 1 164 139 285 845 846 847
226 9 2 6 1 440 168 454 653 848 849
227 9 2 6 1 441 167 455 655 850 851
228 9 2 6 1 7 166 285 852 853 854
229 9 2 6 1 163 125 287 855 856 857
230 9 2 6 1 5 165 287 858 859 860
231 9 2 6 1 18 19 177 38 680 861
232 9 2 6 1 76 77 178 96 862 863
233 9 2 6 1 335 234 414 864 865 842
234 9 2 6 1 309 164 485 818 866 867
235 9 2 6 1 20 21 169 40 682 827
236 9 2 6 1 78 79 170 98 684 868
237 9 2 6 1 173 12 348 869 870 871
238 9 2 6 1 174 70 349 872 873 874
239 9 2 6 1 310 163 486 821 875 876
240 9 2 6 1 26 182 370 877 878 879
241 9 2 6 1 203 187 402 880 809 881
242 9 2 6 1 255 239 404 882 812 883
243 9 2 6 1 379 423 428 831 884 885
244 9 2 6 1 384 421 430 834 886 887
245 9 2 6 1 323 338 450 888 783 889
246 9 2 6 1 73 74 167 93 890 548
247 9 2 6 1 15 16 168 35 891 550
248 9 2 6 1 343 276 469 892 893 894
249 9 2 6 1 344 224 468 895 896 897
250 9 2 6 1 301 401 485 650 898 899
251 9 2 6 1 161 359 462 803 577 900
252 9 2 6 1 162 367 463 806 579 901
253 9 2 6 1 299 403 486 661 902 903
254 9 2 6 1 392 49 439 510 904 905
255 9 2 6 1 247 343 469 906 894 603
256 9 2 6 1 195 344 468 907 897 606
257 9 2 6 1 164 285 300 847 610 908
258 9 2 6 1 351 350 424 909 910 770
259 9 2 6 1 370 182 391 878 911 912
260 9 2 6 1 308 372 450 688 913 914
261 9 2 6 1 178 453 492 915 916 917
262 9 2 6 1 414 304 415 918 919 843
263 9 2 6 1 373 306 397 657 920 921
264 9 2 6 1 285 166 286 853 922 608
265 9 2 6 1 155 111 376 923 924 925
266 9 2 6 1 156 53 381 926 927 928
267 9 2 6 1 80 81 161 100 813 929
268 9 2 6 1 22 23 162 42 815 930
269 9 2 6 1 234 222 389 931 686 726
270 9 2 6 1 163 287 288 857 624 932
271 9 2 6 1 352 171 353 933 934 837
272 9 2 6 1 360 172 361 935 936 838
273 9 2 6 1 452 340 464 516 937 716
274 9 2 6 1 451 342 465 519 938 714
275 9 2 6 1 13 14 160 33 939 940
276 9 2 6 1 71 72 159 91 941 942
277 9 2 6 1 175 109 374 943 944 945
278 9 2 6 1 176 51 375 946 947 948
279 9 2 6 1 227 323 372 751 949 788
280 9 2 6 1 222 207 401 950 951 687
281 9 2 6 1 263 265 397 952 953 954
282 9 2 6 1 211 213 398 955 540 956
283 9 2 6 1 312 339 466 957 958 959
284 9 2 6 1 311 341 467 960 961 962
285 9 2 6 1 178 77 453 862 963 915
286 9 2 6 1 353 355 369 964 965 748
287 9 2 6 1 19 20 337 39 828 681
288 9 2 6 1 287 165 291 859 966 625
289 9 2 6 1 13 160 348 940 724 967
290 9 2 6 1 71 159 349 942 722 968
291 9 2 6 1 215 226 227 969 970 787
292 9 2 6 1 267 278 279 971 972 839
293 9 2 6 1 178 415 484 973 717 974
294 9 2 6 1 276 343 456 892 975 976
295 9 2 6 1 224 344 457 895 977 978
296 9 2 6 1 361 363 368 979 980 753
297 9 2 6 1 78 170 453 868 628 981
298 9 2 6 1 83 84 371 103 982 983
299 9 2 6 1 274 259 403 984 985 702
300 9 2 6 1 153 141 488 986 987 988
301 9 2 6 1 154 127 489 989 990 991
302 9 2 6 1 25 26 370 45 879 992
303 9 2 6 1 82 171 352 993 933 994
304 9 2 6 1 24 172 360 995 935 996
305 9 2 6 1 401 402 485 997 998 898
306 9 2 6 1 403 404 486 999 1000 902
307 9 2 6 1 227 228 229 1001 1002 749
308 9 2 6 1 313 440 454 1003 849 612
309 9 2 6 1 376 377 393 1004 795 1005
310 9 2 6 1 381 382 394 1006 798 1007
311 9 2 6 1 314 441 455 1008 851 614
312 9 2 6 1 133 157 461 1009 1010 754
313 9 2 6 1 110 111 155 120 923 1011
314 9 2 6 1 52 53 156 62 926 1012
315 9 2 6 1 110 155 374 1011 1013 1014
316 9 2 6 1 52 156 375 1012 1015 1016
317 9 2 6 1 279 280 281 1017 1018 699
318 9 2 6 1 300 330 389 673 727 1019
319 9 2 6 1 376 179 377 1020 1021 1004
320 9 2 6 1 381 180 382 1022 1023 1006
321 9 2 6 1 350 274 395 1024 701 785
322 9 2 6 1 361 362 363 1025 1026 979
323 9 2 6 1 357 356 358 631 1027 1028
324 9 2 6 1 346 260 431 1029 1030 707
325 9 2 6 1 347 208 432 1031 1032 709
326 9 2 6 1 365 364 366 629 1033 1034
327 9 2 6 1 81 82 352 101 994 814
328 9 2 6 1 23 24 360 43 996 816
329 9 2 6 1 353 354 355 1035 1036 964
330 9 2 6 1 176 375 419 948 1037 1038
331 9 2 6 1 221 207 222 1039 950 1040
332 9 2 6 1 377 378 379 1041 1042 1043
333 9 2 6 1 382 383 384 1044 1045 1046
334 9 2 6 1 175 374 417 945 1047 1048
335 9 2 6 1 391 182 392 911 1049 1050
336 9 2 6 1 298 430 437 830 1051 1052
337 9 2 6 1 296 428 438 829 1053 1054
338 9 2 6 1 253 268 458 1055 1056 1057
339 9 2 6 1 201 216 459 1058 1059 1060
340 9 2 6 1 273 259 274 1061 984 1062
341 9 2 6 1 112 179 376 1063 1020 1064
342 9 2 6 1 54 180 381 1065 1022 1066
343 9 2 6 1 11 12 173 31 869 1067
344 9 2 6 1 69 70 174 89 872 1068
345 9 2 6 1 82 83 171 102 1069 993
346 9 2 6 1 24 25 172 44 1070 995
347 9 2 6 1 290 148 482 1071 775 1072
348 9 2 6 1 361 172 362 936 1073 1025
349 9 2 6 1 111 112 376 121 1064 924
350 9 2 6 1 53 54 381 63 1066 927
351 9 2 6 1 234 330 414 725 778 865
352 9 2 6 1 330 286 426 672 1074 779
353 9 2 6 1 155 393 416 1075 590 1076
354 9 2 6 1 156 394 418 1077 593 1078
355 9 2 6 1 108 109 175 118 943 1079
356 9 2 6 1 50 51 176 60 946 1080
357 9 2 6 1 141 309 488 1081 1082 987
358 9 2 6 1 12 13 348 32 967 870
359 9 2 6 1 70 71 349 90 968 873
360 9 2 6 1 353 171 354 934 1083 1035
361 9 2 6 1 127 310 489 1084 1085 990
362 9 2 6 1 430 421 437 886 1086 1051
363 9 2 6 1 428 423 438 884 1087 1053
364 9 2 6 1 288 292 395 695 786 1088
365 9 2 6 1 109 110 374 119 1014 944
366 9 2 6 1 51 52 375 61 1016 947
367 9 2 6 1 345 169 472 561 587 1089
368 9 2 6 1 377 179 378 1021 1090 1041
369 9 2 6 1 382 180 383 1023 1091 1044
370 9 2 6 1 171 83 371 1069 983 1092
371 9 2 6 1 155 376 393 925 1005 1075
372 9 2 6 1 156 381 394 928 1007 1077
373 9 2 6 1 84 85 405 104 1093 1094
374 9 2 6 1 335 415 492 844 1095 1096
375 9 2 6 1 265 267 373 1097 841 1098
376 9 2 6 1 233 222 234 1099 931 1100
377 9 2 6 1 265 373 397 1098 921 953
378 9 2 6 1 112 113 179 122 1101 1063
379 9 2 6 1 54 55 180 64 1102 1065
380 9 2 6 1 172 25 370 1070 992 1103
381 9 2 6 1 339 312 464 957 637 1104
382 9 2 6 1 341 311 465 960 639 1105
383 9 2 6 1 80 161 386 929 1106 1107
384 9 2 6 1 22 162 388 930 1108 1109
385 9 2 6 1 371 84 405 982 1094 1110
386 9 2 6 1 79 80 386 99 1107 685
387 9 2 6 1 21 22 388 41 1109 683
388 9 2 6 1 348 333 478 723 1111 1112
389 9 2 6 1 349 331 477 721 1113 1114
390 9 2 6 1 384 383 385 1045 568 1115
391 9 2 6 1 379 378 380 1042 565 1116
392 9 2 6 1 363 362 364 1026 1117 536
393 9 2 6 1 106 107 181 116 1118 1119
394 9 2 6 1 26 27 182 46 1120 877
395 9 2 6 1 9 10 302 29 1121 1122
396 9 2 6 1 67 68 303 87 1123 1124
397 9 2 6 1 459 216 490 1059 1125 1126
398 9 2 6 1 458 268 491 1056 1127 1128
399 9 2 6 1 229 230 231 1129 718 744
400 9 2 6 1 284 274 350 1130 1024 1131
401 9 2 6 1 355 354 356 1036 1132 542
402 9 2 6 1 372 323 450 949 889 913
403 9 2 6 1 166 289 324 1133 1134 1135
404 9 2 6 1 401 203 402 1136 881 997
405 9 2 6 1 281 283 304 1137 1138 676
406 9 2 6 1 324 289 325 1134 1139 1140
407 9 2 6 1 403 255 404 1141 883 999
408 9 2 6 1 356 354 390 1132 1142 1143
409 9 2 6 1 232 316 347 1144 1145 1146
410 9 2 6 1 282 318 346 1147 1148 1149
411 9 2 6 1 364 362 391 1117 1150 1151
412 9 2 6 1 368 363 444 980 675 756
413 9 2 6 1 369 355 445 965 679 758
414 9 2 6 1 354 371 390 1152 1153 1142
415 9 2 6 1 358 356 390 1027 1143 1154
416 9 2 6 1 241 243 263 1155 1156 1157
417 9 2 6 1 189 191 211 1158 1159 1160
418 9 2 6 1 249 252 253 1161 1162 1163
419 9 2 6 1 197 200 201 1164 1165 1166
420 9 2 6 1 263 264 265 1167 1168 952
421 9 2 6 1 211 212 213 1169 1170 955
422 9 2 6 1 366 391 392 1171 1050 1172
423 9 2 6 1 253 261 268 1173 1174 1055
424 9 2 6 1 201 209 216 1175 1176 1058
425 9 2 6 1 390 371 405 1153 1110 1177
426 9 2 6 1 241 263 409 1157 1178 1179
427 9 2 6 1 189 211 408 1160 1180 1181
428 9 2 6 1 366 364 391 1033 1151 1171
429 9 2 6 1 350 292 424 784 572 910
430 9 2 6 1 343 245 433 1182 1183 1184
431 9 2 6 1 344 193 434 1185 1186 1187
432 9 2 6 1 378 179 410 1090 1188 766
433 9 2 6 1 383 180 411 1091 1189 768
434 9 2 6 1 304 414 426 918 780 677
435 9 2 6 1 197 201 399 1166 1190 1191
436 9 2 6 1 249 253 400 1163 1192 1193
437 9 2 6 1 354 171 371 1083 1092 1152
438 9 2 6 1 108 175 436 1079 1194 1195
439 9 2 6 1 158 308 482 1196 1197 1198
440 9 2 6 1 362 370 391 1199 912 1150
441 9 2 6 1 75 76 484 95 1200 703
442 9 2 6 1 17 18 483 37 1201 696
443 9 2 6 1 362 172 370 1073 1103 1199
444 9 2 6 1 227 226 228 970 1202 1001
445 9 2 6 1 279 278 280 972 1203 1017
446 9 2 6 1 113 114 410 123 1204 1205
447 9 2 6 1 55 56 411 65 1206 1207
448 9 2 6 1 392 182 474 1049 1208 552
449 9 2 6 1 16 17 454 36 514 1209
450 9 2 6 1 74 75 455 94 523 1210
451 9 2 6 1 379 427 497 1211 1212 832
452 9 2 6 1 384 429 496 1213 1214 835
453 9 2 6 1 268 275 312 1215 1216 1217
454 9 2 6 1 216 223 311 1218 1219 1220
455 9 2 6 1 257 270 293 1221 1222 1223
456 9 2 6 1 205 218 294 1224 1225 1226
457 9 2 6 1 291 165 338 966 1227 1228
458 9 2 6 1 258 251 260 1229 1230 1231
459 9 2 6 1 206 199 208 1232 1233 1234
460 9 2 6 1 181 107 436 1118 1235 1236
461 9 2 6 1 11 173 448 1067 764 1237
462 9 2 6 1 69 174 449 1068 765 1238
463 9 2 6 1 253 252 261 1162 1239 1173
464 9 2 6 1 201 200 209 1165 1240 1175
465 9 2 6 1 402 185 488 808 1241 1242
466 9 2 6 1 293 297 298 1243 619 1244
467 9 2 6 1 294 295 296 1245 617 1246
468 9 2 6 1 404 237 489 811 1247 1248
469 9 2 6 1 14 15 451 34 551 1249
470 9 2 6 1 72 73 452 92 549 1250
471 9 2 6 1 333 334 478 1251 1252 1111
472 9 2 6 1 331 332 477 1253 1254 1113
473 9 2 6 1 415 304 501 919 1255 663
474 9 2 6 1 184 153 185 737 1256 1257
475 9 2 6 1 236 154 237 740 1258 1259
476 9 2 6 1 219 357 447 632 1260 1261
477 9 2 6 1 247 245 343 1262 1182 906
478 9 2 6 1 195 193 344 1263 1185 907
479 9 2 6 1 470 325 481 1264 547 646
480 9 2 6 1 293 270 297 1222 1265 1243
481 9 2 6 1 294 218 295 1225 1266 1245
482 9 2 6 1 271 365 446 630 1267 1268
483 9 2 6 1 221 222 233 1040 1099 530
484 9 2 6 1 265 266 267 1269 1270 1097
485 9 2 6 1 213 214 215 1271 1272 594
486 9 2 6 1 415 178 492 973 917 1095
487 9 2 6 1 390 405 495 1177 1273 1274
488 9 2 6 1 208 199 432 1233 1275 1032
489 9 2 6 1 260 251 431 1230 1276 1030
490 9 2 6 1 263 243 264 1156 1277 1167
491 9 2 6 1 211 191 212 1159 1278 1169
492 9 2 6 1 374 155 416 1013 1076 1279
493 9 2 6 1 375 156 418 1015 1078 1280
494 9 2 6 1 377 379 428 1043 885 796
495 9 2 6 1 382 384 430 1046 887 799
496 9 2 6 1 273 274 284 1062 1130 1281
497 9 2 6 1 179 113 410 1101 1205 1188
498 9 2 6 1 180 55 411 1102 1207 1189
499 9 2 6 1 331 275 332 1282 1283 1253
500 9 2 6 1 333 223 334 1284 1285 1251
501 9 2 6 1 268 261 275 1174 1286 1215
502 9 2 6 1 216 209 223 1176 1287 1218
503 9 2 6 1 261 252 262 1239 1288 1289
504 9 2 6 1 209 200 210 1240 1290 1291
505 9 2 6 1 6 127 154 131 989 762
506 9 2 6 1 8 141 153 145 986 760
507 9 2 6 1 332 429 477 1292 691 1254
508 9 2 6 1 334 427 478 1293 693 1252
509 9 2 6 1 257 258 270 1294 1295 1221
510 9 2 6 1 205 206 218 1296 1297 1224
511 9 2 6 1 373 279 481 840 700 658
512 9 2 6 1 302 10 448 1121 1298 665
513 9 2 6 1 303 68 449 1123 1299 667
514 9 2 6 1 250 248 251 1300 1301 1302
515 9 2 6 1 198 196 199 1303 1304 1305
516 9 2 6 1 270 258 271 1295 1306 1307
517 9 2 6 1 218 206 219 1297 1308 1309
518 9 2 6 1 229 228 230 1002 1310 1129
519 9 2 6 1 312 275 331 1216 1282 636
520 9 2 6 1 311 223 333 1219 1284 638
521 9 2 6 1 164 300 301 908 1311 1312
522 9 2 6 1 281 280 283 1018 1313 1137
523 9 2 6 1 207 203 401 1314 1136 951
524 9 2 6 1 164 301 485 1312 899 866
525 9 2 6 1 244 246 400 1315 1316 1317
526 9 2 6 1 192 194 399 1318 1319 1320
527 9 2 6 1 163 299 486 1321 903 875
528 9 2 6 1 249 250 252 1322 1323 1161
529 9 2 6 1 197 198 200 1324 1325 1164
530 9 2 6 1 163 288 299 932 1326 1321
531 9 2 6 1 308 450 482 914 1327 1197
532 9 2 6 1 257 251 258 1328 1229 1294
533 9 2 6 1 205 199 206 1329 1232 1296
534 9 2 6 1 194 196 197 1330 1331 1332
535 9 2 6 1 246 248 249 1333 1334 1335
536 9 2 6 1 317 277 327 1336 1337 1338
537 9 2 6 1 315 225 326 1339 1340 1341
538 9 2 6 1 259 255 403 1342 1141 985
539 9 2 6 1 263 397 493 954 1343 1344
540 9 2 6 1 211 398 494 956 1345 1346
541 9 2 6 1 250 251 257 1302 1328 1347
542 9 2 6 1 198 199 205 1305 1329 1348
543 9 2 6 1 291 338 396 1228 1349 720
544 9 2 6 1 325 289 461 1139 755 525
545 9 2 6 1 257 293 406 1223 1350 1351
546 9 2 6 1 205 294 407 1226 1352 1353
547 9 2 6 1 157 305 306 826 1354 1355
548 9 2 6 1 158 307 308 824 1356 1196
549 9 2 6 1 267 272 278 1357 1358 971
550 9 2 6 1 215 220 226 1359 1360 969
551 9 2 6 1 254 239 255 1361 882 1362
552 9 2 6 1 202 187 203 1363 880 1364
553 9 2 6 1 436 175 499 1194 1365 1366
554 9 2 6 1 221 387 471 532 1367 1368
555 9 2 6 1 282 317 318 1369 557 1147
556 9 2 6 1 232 315 316 1370 554 1144
557 9 2 6 1 244 242 245 1371 1372 1373
558 9 2 6 1 192 190 193 1374 1375 1376
559 9 2 6 1 49 50 439 59 1377 904
560 9 2 6 1 246 247 248 1378 1379 1333
561 9 2 6 1 194 195 196 1380 1381 1330
562 9 2 6 1 133 132 157 136 792 1009
563 9 2 6 1 147 146 158 150 789 1382
564 9 2 6 1 256 255 259 1383 1342 1384
565 9 2 6 1 204 203 207 1385 1314 1386
566 9 2 6 1 276 277 282 1387 1388 1389
567 9 2 6 1 224 225 232 1390 1391 1392
568 9 2 6 1 233 234 335 1100 864 1393
569 9 2 6 1 243 242 244 1394 1371 1395
570 9 2 6 1 191 190 192 1396 1374 1397
571 9 2 6 1 249 248 250 1334 1300 1322
572 9 2 6 1 197 196 198 1331 1303 1324
573 9 2 6 1 284 350 351 1131 909 1398
574 9 2 6 1 140 139 164 143 845 817
575 9 2 6 1 126 125 163 129 855 820
576 9 2 6 1 236 238 409 1399 1400 1401
577 9 2 6 1 184 186 408 1402 1403 1404
578 9 2 6 1 379 380 427 1116 598 1211
579 9 2 6 1 384 385 429 1115 601 1213
580 9 2 6 1 328 272 339 1405 1406 1407
581 9 2 6 1 329 220 341 1408 1409 1410
582 9 2 6 1 7 134 166 138 1411 852
583 9 2 6 1 5 148 165 152 1412 858
584 9 2 6 1 282 277 317 1388 1336 1369
585 9 2 6 1 232 225 315 1391 1339 1370
586 9 2 6 1 146 8 183 149 761 790
587 9 2 6 1 132 6 235 135 763 793
588 9 2 6 1 250 257 406 1347 1351 1413
589 9 2 6 1 198 205 407 1348 1353 1414
590 9 2 6 1 269 259 273 1415 1061 1416
591 9 2 6 1 217 207 221 1417 1039 1418
592 9 2 6 1 252 250 406 1323 1413 1419
593 9 2 6 1 200 198 407 1325 1414 1420
594 9 2 6 1 224 232 468 1392 1421 896
595 9 2 6 1 276 282 469 1389 1422 893
596 9 2 6 1 246 245 247 1423 1262 1378
597 9 2 6 1 194 193 195 1424 1263 1380
598 9 2 6 1 262 252 406 1288 1419 1425
599 9 2 6 1 210 200 407 1290 1420 1426
600 9 2 6 1 244 245 246 1373 1423 1315
601 9 2 6 1 192 193 194 1376 1424 1318
602 9 2 6 1 260 346 479 1029 1427 731
603 9 2 6 1 208 347 480 1031 1428 734
604 9 2 6 1 328 339 340 1407 1429 641
605 9 2 6 1 329 341 342 1410 1430 643
606 9 2 6 1 141 140 309 144 819 1081
607 9 2 6 1 4 106 473 115 1431 1432
608 9 2 6 1 2 48 474 57 553 1433
609 9 2 6 1 27 2 474 47 1433 1434
610 9 2 6 1 85 4 473 105 1432 1435
611 9 2 6 1 3 67 476 86 1436 1437
612 9 2 6 1 56 3 476 66 1437 1438
613 9 2 6 1 114 1 475 124 1439 1440
614 9 2 6 1 1 9 475 28 1441 1439
615 9 2 6 1 127 126 310 130 822 1084
616 9 2 6 1 405 181 495 1442 1443 1273
617 9 2 6 1 50 176 439 1080 1444 1377
618 9 2 6 1 420 262 421 1445 1446 1447
619 9 2 6 1 422 210 423 1448 1449 1450
620 9 2 6 1 286 166 324 922 1135 1451
621 9 2 6 1 265 264 266 1168 1452 1269
622 9 2 6 1 213 212 214 1170 1453 1271
623 9 2 6 1 241 242 243 1454 1394 1155
624 9 2 6 1 189 190 191 1455 1396 1158
625 9 2 6 1 186 188 189 1456 1457 1458
626 9 2 6 1 238 240 241 1459 1460 1461
627 9 2 6 1 194 197 399 1332 1191 1319
628 9 2 6 1 246 249 400 1335 1193 1316
629 9 2 6 1 266 264 319 1452 1462 1463
630 9 2 6 1 214 212 320 1453 1464 1465
631 9 2 6 1 204 217 224 1466 1467 1468
632 9 2 6 1 256 269 276 1469 1470 1471
633 9 2 6 1 406 293 437 1350 1472 1473
634 9 2 6 1 407 294 438 1352 1474 1475
635 9 2 6 1 276 269 277 1470 1476 1387
636 9 2 6 1 224 217 225 1467 1477 1390
637 9 2 6 1 323 229 487 750 671 1478
638 9 2 6 1 238 239 240 1479 1480 1459
639 9 2 6 1 186 187 188 1481 1482 1456
640 9 2 6 1 262 406 437 1425 1473 1483
641 9 2 6 1 210 407 438 1426 1475 1484
642 9 2 6 1 309 485 488 867 1485 1082
643 9 2 6 1 236 237 238 1259 1486 1399
644 9 2 6 1 184 185 186 1257 1487 1402
645 9 2 6 1 310 486 489 876 1488 1085
646 9 2 6 1 332 275 420 1283 1489 1490
647 9 2 6 1 334 223 422 1285 1491 1492
648 9 2 6 1 107 108 436 117 1195 1235
649 9 2 6 1 139 7 285 142 854 846
650 9 2 6 1 293 298 437 1244 1052 1472
651 9 2 6 1 294 296 438 1246 1054 1474
652 9 2 6 1 241 240 242 1460 1493 1454
653 9 2 6 1 189 188 190 1457 1494 1455
654 9 2 6 1 125 5 287 128 860 856
655 9 2 6 1 173 348 478 871 1112 692
656 9 2 6 1 174 349 477 874 1114 690
657 9 2 6 1 261 262 420 1289 1445 1495
658 9 2 6 1 209 210 422 1291 1448 1496
659 9 2 6 1 267 266 272 1270 1497 1357
660 9 2 6 1 215 214 220 1272 1498 1359
661 9 2 6 1 375 418 419 1280 743 1037
662 9 2 6 1 278 272 328 1358 1405 1499
663 9 2 6 1 226 220 329 1360 1408 1500
664 9 2 6 1 254 255 256 1362 1383 1501
665 9 2 6 1 202 203 204 1364 1385 1502
666 9 2 6 1 273 284 345 1281 1503 1504
667 9 2 6 1 251 248 431 1301 1505 1276
668 9 2 6 1 199 196 432 1304 1506 1275
669 9 2 6 1 387 326 471 569 1507 1367
670 9 2 6 1 256 259 269 1384 1415 1469
671 9 2 6 1 204 207 217 1386 1417 1466
672 9 2 6 1 244 400 412 1317 1508 1509
673 9 2 6 1 192 399 413 1320 1510 1511
674 9 2 6 1 374 416 417 1279 746 1047
675 9 2 6 1 366 392 439 1172 905 1512
676 9 2 6 1 233 335 336 1393 1513 533
677 9 2 6 1 318 368 479 706 757 1514
678 9 2 6 1 358 436 499 1515 1366 1516
679 9 2 6 1 327 277 435 1337 1517 1518
680 9 2 6 1 275 261 420 1286 1495 1489
681 9 2 6 1 223 209 422 1287 1496 1491
682 9 2 6 1 283 314 322 1519 613 1520
683 9 2 6 1 230 313 321 1521 611 633
684 9 2 6 1 248 247 431 1379 602 1505
685 9 2 6 1 196 195 432 1381 605 1506
686 9 2 6 1 238 237 239 1486 810 1479
687 9 2 6 1 186 185 187 1487 807 1481
688 9 2 6 1 316 369 480 712 759 1522
689 9 2 6 1 243 244 412 1395 1509 1523
690 9 2 6 1 191 192 413 1397 1511 1524
691 9 2 6 1 270 271 446 1307 1268 1525
692 9 2 6 1 76 178 484 863 974 1200
693 9 2 6 1 18 177 483 861 652 1201
694 9 2 6 1 218 219 447 1309 1261 1526
695 9 2 6 1 271 258 444 1306 1527 674
696 9 2 6 1 168 16 454 891 1209 848
697 9 2 6 1 219 206 445 1308 1528 678
698 9 2 6 1 167 74 455 890 1210 850
699 9 2 6 1 240 239 254 1480 1361 1529
700 9 2 6 1 188 187 202 1482 1363 1530
701 9 2 6 1 166 134 289 1411 698 1133
702 9 2 6 1 165 148 290 1412 1071 1531
703 9 2 6 1 283 280 314 1313 1532 1519
704 9 2 6 1 264 243 412 1277 1523 1533
705 9 2 6 1 212 191 413 1278 1524 1534
706 9 2 6 1 230 228 313 1310 1535 1521
707 9 2 6 1 485 402 488 998 1242 1485
708 9 2 6 1 326 386 462 529 1536 1537
709 9 2 6 1 327 388 463 615 1538 1539
710 9 2 6 1 308 307 398 1356 1540 689
711 9 2 6 1 306 305 397 1354 1541 920
712 9 2 6 1 486 404 489 1000 1248 1488
713 9 2 6 1 238 241 409 1461 1179 1400
714 9 2 6 1 186 189 408 1458 1181 1403
715 9 2 6 1 319 264 412 1462 1533 1542
716 9 2 6 1 320 212 413 1464 1534 1543
717 9 2 6 1 160 14 451 939 1249 713
718 9 2 6 1 159 72 452 941 1250 715
719 9 2 6 1 421 262 437 1446 1483 1086
720 9 2 6 1 423 210 438 1449 1484 1087
721 9 2 6 1 245 242 433 1372 1544 1183
722 9 2 6 1 193 190 434 1375 1545 1186
723 9 2 6 1 426 324 470 1546 1547 574
724 9 2 6 1 326 225 471 1340 1548 1507
725 9 2 6 1 339 272 443 1406 1549 1550
726 9 2 6 1 341 220 442 1409 1551 1552
727 9 2 6 1 301 300 389 1311 1019 648
728 9 2 6 1 176 419 498 1038 1553 1554
729 9 2 6 1 405 85 473 1093 1435 1555
730 9 2 6 1 175 417 499 1048 1556 1365
731 9 2 6 1 299 288 395 1326 1088 659
732 9 2 6 1 273 345 435 1504 1557 1558
733 9 2 6 1 409 263 493 1178 1344 1559
734 9 2 6 1 408 211 494 1180 1346 1560
735 9 2 6 1 242 240 433 1493 1561 1544
736 9 2 6 1 190 188 434 1494 1562 1545
737 9 2 6 1 10 11 448 30 1237 1298
738 9 2 6 1 68 69 449 88 1238 1299
739 9 2 6 1 269 273 435 1416 1558 1563
740 9 2 6 1 258 260 444 1231 730 1527
741 9 2 6 1 206 208 445 1234 733 1528
742 9 2 6 1 277 269 435 1476 1563 1517
743 9 2 6 1 343 433 456 1184 1564 975
744 9 2 6 1 344 434 457 1187 1565 977
745 9 2 6 1 424 231 425 729 719 771
746 9 2 6 1 297 270 446 1265 1525 772
747 9 2 6 1 295 218 447 1266 1526 776
748 9 2 6 1 226 329 440 1500 654 1566
749 9 2 6 1 278 328 441 1499 656 1567
750 9 2 6 1 286 324 426 1451 1546 1074
751 9 2 6 1 165 290 338 1531 781 1227
752 9 2 6 1 204 224 457 1468 978 1568
753 9 2 6 1 256 276 456 1471 976 1569
754 9 2 6 1 77 78 453 97 981 963
755 9 2 6 1 228 226 440 1202 1566 1570
756 9 2 6 1 280 278 441 1203 1567 1571
757 9 2 6 1 240 254 433 1529 1572 1561
758 9 2 6 1 188 202 434 1530 1573 1562
759 9 2 6 1 315 326 462 1341 1537 576
760 9 2 6 1 317 327 463 1338 1539 578
761 9 2 6 1 214 320 442 1465 1574 1575
762 9 2 6 1 266 319 443 1463 1576 1577
763 9 2 6 1 181 436 495 1236 1578 1443
764 9 2 6 1 232 347 468 1146 710 1421
765 9 2 6 1 282 346 469 1149 708 1422
766 9 2 6 1 365 419 446 1579 773 1267
767 9 2 6 1 400 253 458 1192 1057 1580
768 9 2 6 1 399 201 459 1190 1060 1581
769 9 2 6 1 439 176 498 1444 1554 1582
770 9 2 6 1 357 417 447 1583 777 1260
771 9 2 6 1 339 443 466 1550 1584 958
772 9 2 6 1 341 442 467 1552 1585 961
773 9 2 6 1 217 221 471 1418 1368 1586
774 9 2 6 1 283 322 501 1520 664 1587
775 9 2 6 1 412 400 458 1508 1580 1588
776 9 2 6 1 413 399 459 1510 1581 1589
777 9 2 6 1 314 280 441 1532 1571 1008
778 9 2 6 1 313 228 440 1535 1570 1003
779 9 2 6 1 419 365 498 1579 1590 1553
780 9 2 6 1 366 439 498 1512 1582 1591
781 9 2 6 1 386 161 462 1106 900 1536
782 9 2 6 1 388 162 463 1108 901 1538
783 9 2 6 1 268 312 466 1217 959 1592
784 9 2 6 1 216 311 467 1220 962 1593
785 9 2 6 1 272 266 443 1497 1577 1549
786 9 2 6 1 220 214 442 1498 1575 1551
787 9 2 6 1 410 114 475 1204 1440 1594
788 9 2 6 1 411 56 476 1206 1438 1595
789 9 2 6 1 417 357 499 1583 1596 1556
790 9 2 6 1 338 323 487 888 1478 1597
791 9 2 6 1 236 409 502 1401 1598 1599
792 9 2 6 1 184 408 503 1404 1600 1601
793 9 2 6 1 319 412 458 1542 1588 1602
794 9 2 6 1 320 413 459 1543 1589 1603
795 9 2 6 1 106 181 473 1119 1604 1431
796 9 2 6 1 182 27 474 1120 1434 1208
797 9 2 6 1 181 405 473 1442 1555 1604
798 9 2 6 1 9 302 475 1122 1605 1441
799 9 2 6 1 67 303 476 1124 1606 1436
800 9 2 6 1 345 284 460 1503 1607 580
801 9 2 6 1 346 318 479 1148 1514 1427
802 9 2 6 1 347 316 480 1145 1522 1428
803 9 2 6 1 157 306 461 1355 526 1010
804 9 2 6 1 254 256 456 1501 1569 1608
805 9 2 6 1 202 204 457 1502 1568 1609
806 9 2 6 1 433 254 456 1572 1608 1564
807 9 2 6 1 434 202 457 1573 1609 1565
808 9 2 6 1 436 358 495 1515 1610 1578
809 9 2 6 1 357 358 499 1028 1516 1596
810 9 2 6 1 302 410 475 767 1594 1605
811 9 2 6 1 303 411 476 769 1595 1606
812 9 2 6 1 284 351 460 1398 1611 1607
813 9 2 6 1 450 290 482 782 1072 1327
814 9 2 6 1 365 366 498 1034 1591 1590
815 9 2 6 1 183 184 503 738 1601 1612
816 9 2 6 1 235 236 502 741 1599 1613
817 9 2 6 1 427 334 497 1293 1614 1212
818 9 2 6 1 429 332 496 1292 1615 1214
819 9 2 6 1 340 339 464 1429 1104 937
820 9 2 6 1 342 341 465 1430 1105 938
821 9 2 6 1 453 336 492 627 1616 916
822 9 2 6 1 225 217 471 1477 1586 1548
823 9 2 6 1 307 183 503 823 1612 1617
824 9 2 6 1 305 235 502 825 1613 1618
825 9 2 6 1 324 325 470 1140 1264 1547
826 9 2 6 1 358 390 495 1154 1274 1610
827 9 2 6 1 332 420 496 1490 1619 1615
828 9 2 6 1 334 422 497 1492 1620 1614
829 9 2 6 1 185 153 488 1256 988 1241
830 9 2 6 1 237 154 489 1258 991 1247
831 9 2 6 1 327 435 472 1518 1621 616
832 9 2 6 1 443 319 491 1576 1622 1623
833 9 2 6 1 442 320 490 1574 1624 1625
834 9 2 6 1 147 158 482 1382 1198 774
835 9 2 6 1 304 283 501 1138 1587 1255
836 9 2 6 1 420 421 496 1447 836 1619
837 9 2 6 1 422 423 497 1450 833 1620
838 9 2 6 1 409 493 502 1559 1626 1598
839 9 2 6 1 408 494 503 1560 1627 1600
840 9 2 6 1 435 345 472 1557 1089 1621
841 9 2 6 1 397 305 493 1541 1628 1343
842 9 2 6 1 398 307 494 1540 1629 1345
843 9 2 6 1 396 338 487 1349 1597 670
844 9 2 6 1 336 335 492 1513 1096 1616
845 9 2 6 1 466 443 491 1584 1623 1630
846 9 2 6 1 467 442 490 1585 1625 1631
847 9 2 6 1 493 305 502 1628 1618 1626
848 9 2 6 1 494 307 503 1629 1617 1627
849 9 2 6 1 268 466 491 1592 1630 1127
850 9 2 6 1 216 467 490 1593 1631 1125
851 9 2 6 1 319 458 491 1602 1128 1622
852 9 2 6 1 320 459 490 1603 1126 1624
853 9 2 6 1 337 460 500 581 1632 622
854 9 2 6 1 460 351 500 1611 584 1632
$EndElements
